<?xml version="1.0" encoding="utf-8" standalone="no"?>
<!DOCTYPE svg PUBLIC "-//W3C//DTD SVG 1.1//EN"
  "http://www.w3.org/Graphics/SVG/1.1/DTD/svg11.dtd">
<!-- Created with matplotlib (https://matplotlib.org/) -->
<svg height="216pt" version="1.1" viewBox="0 0 216 216" width="216pt" xmlns="http://www.w3.org/2000/svg" xmlns:xlink="http://www.w3.org/1999/xlink">
 <defs>
  <style type="text/css">
*{stroke-linecap:butt;stroke-linejoin:round;}
  </style>
 </defs>
 <g id="figure_1">
  <g id="patch_1">
   <path d="M 0 216 
L 216 216 
L 216 0 
L 0 0 
z
" style="fill:none;"/>
  </g>
  <g id="axes_1">
   <g id="patch_2">
    <path d="M 54.55 169.246875 
L 205.2 169.246875 
L 205.2 13.5775 
L 54.55 13.5775 
z
" style="fill:none;"/>
   </g>
   <g id="patch_3">
    <path clip-path="url(#paab8c7fef5)" d="M 72.45181 169.246875 
L 73.716079 169.246875 
L 73.716079 20.990327 
L 72.45181 20.990327 
z
" style="fill:#1f77b4;opacity:0.8;"/>
   </g>
   <g id="patch_4">
    <path clip-path="url(#paab8c7fef5)" d="M 73.716079 169.246875 
L 74.980347 169.246875 
L 74.980347 169.246875 
L 73.716079 169.246875 
z
" style="fill:#1f77b4;opacity:0.8;"/>
   </g>
   <g id="patch_5">
    <path clip-path="url(#paab8c7fef5)" d="M 74.980347 169.246875 
L 76.244616 169.246875 
L 76.244616 169.246875 
L 74.980347 169.246875 
z
" style="fill:#1f77b4;opacity:0.8;"/>
   </g>
   <g id="patch_6">
    <path clip-path="url(#paab8c7fef5)" d="M 76.244616 169.246875 
L 77.508884 169.246875 
L 77.508884 169.246875 
L 76.244616 169.246875 
z
" style="fill:#1f77b4;opacity:0.8;"/>
   </g>
   <g id="patch_7">
    <path clip-path="url(#paab8c7fef5)" d="M 77.508884 169.246875 
L 78.773153 169.246875 
L 78.773153 169.246875 
L 77.508884 169.246875 
z
" style="fill:#1f77b4;opacity:0.8;"/>
   </g>
   <g id="patch_8">
    <path clip-path="url(#paab8c7fef5)" d="M 78.773153 169.246875 
L 80.037421 169.246875 
L 80.037421 67.92781 
L 78.773153 67.92781 
z
" style="fill:#1f77b4;opacity:0.8;"/>
   </g>
   <g id="patch_9">
    <path clip-path="url(#paab8c7fef5)" d="M 80.037421 169.246875 
L 81.30169 169.246875 
L 81.30169 169.246875 
L 80.037421 169.246875 
z
" style="fill:#1f77b4;opacity:0.8;"/>
   </g>
   <g id="patch_10">
    <path clip-path="url(#paab8c7fef5)" d="M 81.30169 169.246875 
L 82.565958 169.246875 
L 82.565958 169.246875 
L 81.30169 169.246875 
z
" style="fill:#1f77b4;opacity:0.8;"/>
   </g>
   <g id="patch_11">
    <path clip-path="url(#paab8c7fef5)" d="M 82.565958 169.246875 
L 83.830227 169.246875 
L 83.830227 169.246875 
L 82.565958 169.246875 
z
" style="fill:#1f77b4;opacity:0.8;"/>
   </g>
   <g id="patch_12">
    <path clip-path="url(#paab8c7fef5)" d="M 83.830227 169.246875 
L 85.094495 169.246875 
L 85.094495 169.246875 
L 83.830227 169.246875 
z
" style="fill:#1f77b4;opacity:0.8;"/>
   </g>
   <g id="patch_13">
    <path clip-path="url(#paab8c7fef5)" d="M 85.094495 169.246875 
L 86.358764 169.246875 
L 86.358764 137.779613 
L 85.094495 137.779613 
z
" style="fill:#1f77b4;opacity:0.8;"/>
   </g>
   <g id="patch_14">
    <path clip-path="url(#paab8c7fef5)" d="M 86.358764 169.246875 
L 87.623032 169.246875 
L 87.623032 169.246875 
L 86.358764 169.246875 
z
" style="fill:#1f77b4;opacity:0.8;"/>
   </g>
   <g id="patch_15">
    <path clip-path="url(#paab8c7fef5)" d="M 87.623032 169.246875 
L 88.887301 169.246875 
L 88.887301 169.246875 
L 87.623032 169.246875 
z
" style="fill:#1f77b4;opacity:0.8;"/>
   </g>
   <g id="patch_16">
    <path clip-path="url(#paab8c7fef5)" d="M 88.887301 169.246875 
L 90.151569 169.246875 
L 90.151569 169.246875 
L 88.887301 169.246875 
z
" style="fill:#1f77b4;opacity:0.8;"/>
   </g>
   <g id="patch_17">
    <path clip-path="url(#paab8c7fef5)" d="M 90.151569 169.246875 
L 91.415837 169.246875 
L 91.415837 155.121309 
L 90.151569 155.121309 
z
" style="fill:#1f77b4;opacity:0.8;"/>
   </g>
   <g id="patch_18">
    <path clip-path="url(#paab8c7fef5)" d="M 91.415837 169.246875 
L 92.680106 169.246875 
L 92.680106 169.246875 
L 91.415837 169.246875 
z
" style="fill:#1f77b4;opacity:0.8;"/>
   </g>
   <g id="patch_19">
    <path clip-path="url(#paab8c7fef5)" d="M 92.680106 169.246875 
L 93.944374 169.246875 
L 93.944374 169.246875 
L 92.680106 169.246875 
z
" style="fill:#1f77b4;opacity:0.8;"/>
   </g>
   <g id="patch_20">
    <path clip-path="url(#paab8c7fef5)" d="M 93.944374 169.246875 
L 95.208643 169.246875 
L 95.208643 133.533379 
L 93.944374 133.533379 
z
" style="fill:#1f77b4;opacity:0.8;"/>
   </g>
   <g id="patch_21">
    <path clip-path="url(#paab8c7fef5)" d="M 95.208643 169.246875 
L 96.472911 169.246875 
L 96.472911 169.246875 
L 95.208643 169.246875 
z
" style="fill:#1f77b4;opacity:0.8;"/>
   </g>
   <g id="patch_22">
    <path clip-path="url(#paab8c7fef5)" d="M 96.472911 169.246875 
L 97.73718 169.246875 
L 97.73718 169.246875 
L 96.472911 169.246875 
z
" style="fill:#1f77b4;opacity:0.8;"/>
   </g>
   <g id="patch_23">
    <path clip-path="url(#paab8c7fef5)" d="M 97.73718 169.246875 
L 99.001448 169.246875 
L 99.001448 145.096674 
L 97.73718 145.096674 
z
" style="fill:#1f77b4;opacity:0.8;"/>
   </g>
   <g id="patch_24">
    <path clip-path="url(#paab8c7fef5)" d="M 99.001448 169.246875 
L 100.265717 169.246875 
L 100.265717 169.246875 
L 99.001448 169.246875 
z
" style="fill:#1f77b4;opacity:0.8;"/>
   </g>
   <g id="patch_25">
    <path clip-path="url(#paab8c7fef5)" d="M 100.265717 169.246875 
L 101.529985 169.246875 
L 101.529985 169.246875 
L 100.265717 169.246875 
z
" style="fill:#1f77b4;opacity:0.8;"/>
   </g>
   <g id="patch_26">
    <path clip-path="url(#paab8c7fef5)" d="M 101.529985 169.246875 
L 102.794254 169.246875 
L 102.794254 169.246875 
L 101.529985 169.246875 
z
" style="fill:#1f77b4;opacity:0.8;"/>
   </g>
   <g id="patch_27">
    <path clip-path="url(#paab8c7fef5)" d="M 102.794254 169.246875 
L 104.058522 169.246875 
L 104.058522 169.246875 
L 102.794254 169.246875 
z
" style="fill:#1f77b4;opacity:0.8;"/>
   </g>
   <g id="patch_28">
    <path clip-path="url(#paab8c7fef5)" d="M 104.058522 169.246875 
L 105.322791 169.246875 
L 105.322791 163.306125 
L 104.058522 163.306125 
z
" style="fill:#1f77b4;opacity:0.8;"/>
   </g>
   <g id="patch_29">
    <path clip-path="url(#paab8c7fef5)" d="M 105.322791 169.246875 
L 106.587059 169.246875 
L 106.587059 169.246875 
L 105.322791 169.246875 
z
" style="fill:#1f77b4;opacity:0.8;"/>
   </g>
   <g id="patch_30">
    <path clip-path="url(#paab8c7fef5)" d="M 106.587059 169.246875 
L 107.851328 169.246875 
L 107.851328 169.246875 
L 106.587059 169.246875 
z
" style="fill:#1f77b4;opacity:0.8;"/>
   </g>
   <g id="patch_31">
    <path clip-path="url(#paab8c7fef5)" d="M 107.851328 169.246875 
L 109.115596 169.246875 
L 109.115596 158.012336 
L 107.851328 158.012336 
z
" style="fill:#1f77b4;opacity:0.8;"/>
   </g>
   <g id="patch_32">
    <path clip-path="url(#paab8c7fef5)" d="M 109.115596 169.246875 
L 110.379865 169.246875 
L 110.379865 169.246875 
L 109.115596 169.246875 
z
" style="fill:#1f77b4;opacity:0.8;"/>
   </g>
   <g id="patch_33">
    <path clip-path="url(#paab8c7fef5)" d="M 110.379865 169.246875 
L 111.644133 169.246875 
L 111.644133 162.310115 
L 110.379865 162.310115 
z
" style="fill:#1f77b4;opacity:0.8;"/>
   </g>
   <g id="patch_34">
    <path clip-path="url(#paab8c7fef5)" d="M 111.644133 169.246875 
L 112.908402 169.246875 
L 112.908402 169.246875 
L 111.644133 169.246875 
z
" style="fill:#1f77b4;opacity:0.8;"/>
   </g>
   <g id="patch_35">
    <path clip-path="url(#paab8c7fef5)" d="M 112.908402 169.246875 
L 114.17267 169.246875 
L 114.17267 164.197826 
L 112.908402 164.197826 
z
" style="fill:#1f77b4;opacity:0.8;"/>
   </g>
   <g id="patch_36">
    <path clip-path="url(#paab8c7fef5)" d="M 114.17267 169.246875 
L 115.436938 169.246875 
L 115.436938 169.246875 
L 114.17267 169.246875 
z
" style="fill:#1f77b4;opacity:0.8;"/>
   </g>
   <g id="patch_37">
    <path clip-path="url(#paab8c7fef5)" d="M 115.436938 169.246875 
L 116.701207 169.246875 
L 116.701207 167.975278 
L 115.436938 167.975278 
z
" style="fill:#1f77b4;opacity:0.8;"/>
   </g>
   <g id="patch_38">
    <path clip-path="url(#paab8c7fef5)" d="M 116.701207 169.246875 
L 117.965475 169.246875 
L 117.965475 169.246875 
L 116.701207 169.246875 
z
" style="fill:#1f77b4;opacity:0.8;"/>
   </g>
   <g id="patch_39">
    <path clip-path="url(#paab8c7fef5)" d="M 117.965475 169.246875 
L 119.229744 169.246875 
L 119.229744 166.248292 
L 117.965475 166.248292 
z
" style="fill:#1f77b4;opacity:0.8;"/>
   </g>
   <g id="patch_40">
    <path clip-path="url(#paab8c7fef5)" d="M 119.229744 169.246875 
L 120.494012 169.246875 
L 120.494012 169.246875 
L 119.229744 169.246875 
z
" style="fill:#1f77b4;opacity:0.8;"/>
   </g>
   <g id="patch_41">
    <path clip-path="url(#paab8c7fef5)" d="M 120.494012 169.246875 
L 121.758281 169.246875 
L 121.758281 165.07938 
L 120.494012 165.07938 
z
" style="fill:#1f77b4;opacity:0.8;"/>
   </g>
   <g id="patch_42">
    <path clip-path="url(#paab8c7fef5)" d="M 121.758281 169.246875 
L 123.022549 169.246875 
L 123.022549 169.246875 
L 121.758281 169.246875 
z
" style="fill:#1f77b4;opacity:0.8;"/>
   </g>
   <g id="patch_43">
    <path clip-path="url(#paab8c7fef5)" d="M 123.022549 169.246875 
L 124.286818 169.246875 
L 124.286818 169.246875 
L 123.022549 169.246875 
z
" style="fill:#1f77b4;opacity:0.8;"/>
   </g>
   <g id="patch_44">
    <path clip-path="url(#paab8c7fef5)" d="M 124.286818 169.246875 
L 125.551086 169.246875 
L 125.551086 169.246875 
L 124.286818 169.246875 
z
" style="fill:#1f77b4;opacity:0.8;"/>
   </g>
   <g id="patch_45">
    <path clip-path="url(#paab8c7fef5)" d="M 125.551086 169.246875 
L 126.815355 169.246875 
L 126.815355 168.937195 
L 125.551086 168.937195 
z
" style="fill:#1f77b4;opacity:0.8;"/>
   </g>
   <g id="patch_46">
    <path clip-path="url(#paab8c7fef5)" d="M 126.815355 169.246875 
L 128.079623 169.246875 
L 128.079623 169.246875 
L 126.815355 169.246875 
z
" style="fill:#1f77b4;opacity:0.8;"/>
   </g>
   <g id="patch_47">
    <path clip-path="url(#paab8c7fef5)" d="M 128.079623 169.246875 
L 129.343892 169.246875 
L 129.343892 167.225632 
L 128.079623 167.225632 
z
" style="fill:#1f77b4;opacity:0.8;"/>
   </g>
   <g id="patch_48">
    <path clip-path="url(#paab8c7fef5)" d="M 129.343892 169.246875 
L 130.60816 169.246875 
L 130.60816 168.018706 
L 129.343892 168.018706 
z
" style="fill:#1f77b4;opacity:0.8;"/>
   </g>
   <g id="patch_49">
    <path clip-path="url(#paab8c7fef5)" d="M 130.60816 169.246875 
L 131.872429 169.246875 
L 131.872429 169.246875 
L 130.60816 169.246875 
z
" style="fill:#1f77b4;opacity:0.8;"/>
   </g>
   <g id="patch_50">
    <path clip-path="url(#paab8c7fef5)" d="M 131.872429 169.246875 
L 133.136697 169.246875 
L 133.136697 168.632385 
L 131.872429 168.632385 
z
" style="fill:#1f77b4;opacity:0.8;"/>
   </g>
   <g id="patch_51">
    <path clip-path="url(#paab8c7fef5)" d="M 133.136697 169.246875 
L 134.400966 169.246875 
L 134.400966 169.246875 
L 133.136697 169.246875 
z
" style="fill:#1f77b4;opacity:0.8;"/>
   </g>
   <g id="patch_52">
    <path clip-path="url(#paab8c7fef5)" d="M 134.400966 169.246875 
L 135.665234 169.246875 
L 135.665234 168.671754 
L 134.400966 168.671754 
z
" style="fill:#1f77b4;opacity:0.8;"/>
   </g>
   <g id="patch_53">
    <path clip-path="url(#paab8c7fef5)" d="M 135.665234 169.246875 
L 136.929502 169.246875 
L 136.929502 168.380744 
L 135.665234 168.380744 
z
" style="fill:#1f77b4;opacity:0.8;"/>
   </g>
   <g id="patch_54">
    <path clip-path="url(#paab8c7fef5)" d="M 136.929502 169.246875 
L 138.193771 169.246875 
L 138.193771 169.246875 
L 136.929502 169.246875 
z
" style="fill:#1f77b4;opacity:0.8;"/>
   </g>
   <g id="patch_55">
    <path clip-path="url(#paab8c7fef5)" d="M 138.193771 169.246875 
L 139.458039 169.246875 
L 139.458039 168.962359 
L 138.193771 168.962359 
z
" style="fill:#1f77b4;opacity:0.8;"/>
   </g>
   <g id="patch_56">
    <path clip-path="url(#paab8c7fef5)" d="M 139.458039 169.246875 
L 140.722308 169.246875 
L 140.722308 169.246875 
L 139.458039 169.246875 
z
" style="fill:#1f77b4;opacity:0.8;"/>
   </g>
   <g id="patch_57">
    <path clip-path="url(#paab8c7fef5)" d="M 140.722308 169.246875 
L 141.986576 169.246875 
L 141.986576 169.246875 
L 140.722308 169.246875 
z
" style="fill:#1f77b4;opacity:0.8;"/>
   </g>
   <g id="patch_58">
    <path clip-path="url(#paab8c7fef5)" d="M 141.986576 169.246875 
L 143.250845 169.246875 
L 143.250845 169.043533 
L 141.986576 169.043533 
z
" style="fill:#1f77b4;opacity:0.8;"/>
   </g>
   <g id="patch_59">
    <path clip-path="url(#paab8c7fef5)" d="M 143.250845 169.246875 
L 144.515113 169.246875 
L 144.515113 169.030545 
L 143.250845 169.030545 
z
" style="fill:#1f77b4;opacity:0.8;"/>
   </g>
   <g id="patch_60">
    <path clip-path="url(#paab8c7fef5)" d="M 144.515113 169.246875 
L 145.779382 169.246875 
L 145.779382 169.246875 
L 144.515113 169.246875 
z
" style="fill:#1f77b4;opacity:0.8;"/>
   </g>
   <g id="patch_61">
    <path clip-path="url(#paab8c7fef5)" d="M 145.779382 169.246875 
L 147.04365 169.246875 
L 147.04365 168.795139 
L 145.779382 168.795139 
z
" style="fill:#1f77b4;opacity:0.8;"/>
   </g>
   <g id="patch_62">
    <path clip-path="url(#paab8c7fef5)" d="M 147.04365 169.246875 
L 148.307919 169.246875 
L 148.307919 169.087773 
L 147.04365 169.087773 
z
" style="fill:#1f77b4;opacity:0.8;"/>
   </g>
   <g id="patch_63">
    <path clip-path="url(#paab8c7fef5)" d="M 148.307919 169.246875 
L 149.572187 169.246875 
L 149.572187 169.246875 
L 148.307919 169.246875 
z
" style="fill:#1f77b4;opacity:0.8;"/>
   </g>
   <g id="patch_64">
    <path clip-path="url(#paab8c7fef5)" d="M 149.572187 169.246875 
L 150.836456 169.246875 
L 150.836456 169.246875 
L 149.572187 169.246875 
z
" style="fill:#1f77b4;opacity:0.8;"/>
   </g>
   <g id="patch_65">
    <path clip-path="url(#paab8c7fef5)" d="M 150.836456 169.246875 
L 152.100724 169.246875 
L 152.100724 169.055709 
L 150.836456 169.055709 
z
" style="fill:#1f77b4;opacity:0.8;"/>
   </g>
   <g id="patch_66">
    <path clip-path="url(#paab8c7fef5)" d="M 152.100724 169.246875 
L 153.364993 169.246875 
L 153.364993 169.106443 
L 152.100724 169.106443 
z
" style="fill:#1f77b4;opacity:0.8;"/>
   </g>
   <g id="patch_67">
    <path clip-path="url(#paab8c7fef5)" d="M 153.364993 169.246875 
L 154.629261 169.246875 
L 154.629261 169.246875 
L 153.364993 169.246875 
z
" style="fill:#1f77b4;opacity:0.8;"/>
   </g>
   <g id="patch_68">
    <path clip-path="url(#paab8c7fef5)" d="M 154.629261 169.246875 
L 155.89353 169.246875 
L 155.89353 169.217652 
L 154.629261 169.217652 
z
" style="fill:#1f77b4;opacity:0.8;"/>
   </g>
   <g id="patch_69">
    <path clip-path="url(#paab8c7fef5)" d="M 155.89353 169.246875 
L 157.157798 169.246875 
L 157.157798 169.246875 
L 155.89353 169.246875 
z
" style="fill:#1f77b4;opacity:0.8;"/>
   </g>
   <g id="patch_70">
    <path clip-path="url(#paab8c7fef5)" d="M 157.157798 169.246875 
L 158.422067 169.246875 
L 158.422067 169.174224 
L 157.157798 169.174224 
z
" style="fill:#1f77b4;opacity:0.8;"/>
   </g>
   <g id="patch_71">
    <path clip-path="url(#paab8c7fef5)" d="M 158.422067 169.246875 
L 159.686335 169.246875 
L 159.686335 169.170165 
L 158.422067 169.170165 
z
" style="fill:#1f77b4;opacity:0.8;"/>
   </g>
   <g id="patch_72">
    <path clip-path="url(#paab8c7fef5)" d="M 159.686335 169.246875 
L 160.950603 169.246875 
L 160.950603 169.19817 
L 159.686335 169.19817 
z
" style="fill:#1f77b4;opacity:0.8;"/>
   </g>
   <g id="patch_73">
    <path clip-path="url(#paab8c7fef5)" d="M 160.950603 169.246875 
L 162.214872 169.246875 
L 162.214872 169.227393 
L 160.950603 169.227393 
z
" style="fill:#1f77b4;opacity:0.8;"/>
   </g>
   <g id="patch_74">
    <path clip-path="url(#paab8c7fef5)" d="M 162.214872 169.246875 
L 163.47914 169.246875 
L 163.47914 169.233481 
L 162.214872 169.233481 
z
" style="fill:#1f77b4;opacity:0.8;"/>
   </g>
   <g id="patch_75">
    <path clip-path="url(#paab8c7fef5)" d="M 163.47914 169.246875 
L 164.743409 169.246875 
L 164.743409 169.246875 
L 163.47914 169.246875 
z
" style="fill:#1f77b4;opacity:0.8;"/>
   </g>
   <g id="patch_76">
    <path clip-path="url(#paab8c7fef5)" d="M 164.743409 169.246875 
L 166.007677 169.246875 
L 166.007677 169.213999 
L 164.743409 169.213999 
z
" style="fill:#1f77b4;opacity:0.8;"/>
   </g>
   <g id="patch_77">
    <path clip-path="url(#paab8c7fef5)" d="M 166.007677 169.246875 
L 167.271946 169.246875 
L 167.271946 169.246875 
L 166.007677 169.246875 
z
" style="fill:#1f77b4;opacity:0.8;"/>
   </g>
   <g id="patch_78">
    <path clip-path="url(#paab8c7fef5)" d="M 167.271946 169.246875 
L 168.536214 169.246875 
L 168.536214 169.233481 
L 167.271946 169.233481 
z
" style="fill:#1f77b4;opacity:0.8;"/>
   </g>
   <g id="patch_79">
    <path clip-path="url(#paab8c7fef5)" d="M 168.536214 169.246875 
L 169.800483 169.246875 
L 169.800483 169.194518 
L 168.536214 169.194518 
z
" style="fill:#1f77b4;opacity:0.8;"/>
   </g>
   <g id="patch_80">
    <path clip-path="url(#paab8c7fef5)" d="M 169.800483 169.246875 
L 171.064751 169.246875 
L 171.064751 169.242005 
L 169.800483 169.242005 
z
" style="fill:#1f77b4;opacity:0.8;"/>
   </g>
   <g id="patch_81">
    <path clip-path="url(#paab8c7fef5)" d="M 171.064751 169.246875 
L 172.32902 169.246875 
L 172.32902 169.234699 
L 171.064751 169.234699 
z
" style="fill:#1f77b4;opacity:0.8;"/>
   </g>
   <g id="patch_82">
    <path clip-path="url(#paab8c7fef5)" d="M 172.32902 169.246875 
L 173.593288 169.246875 
L 173.593288 169.245657 
L 172.32902 169.245657 
z
" style="fill:#1f77b4;opacity:0.8;"/>
   </g>
   <g id="patch_83">
    <path clip-path="url(#paab8c7fef5)" d="M 173.593288 169.246875 
L 174.857557 169.246875 
L 174.857557 169.22374 
L 173.593288 169.22374 
z
" style="fill:#1f77b4;opacity:0.8;"/>
   </g>
   <g id="patch_84">
    <path clip-path="url(#paab8c7fef5)" d="M 174.857557 169.246875 
L 176.121825 169.246875 
L 176.121825 169.239569 
L 174.857557 169.239569 
z
" style="fill:#1f77b4;opacity:0.8;"/>
   </g>
   <g id="patch_85">
    <path clip-path="url(#paab8c7fef5)" d="M 176.121825 169.246875 
L 177.386094 169.246875 
L 177.386094 169.246875 
L 176.121825 169.246875 
z
" style="fill:#1f77b4;opacity:0.8;"/>
   </g>
   <g id="patch_86">
    <path clip-path="url(#paab8c7fef5)" d="M 177.386094 169.246875 
L 178.650362 169.246875 
L 178.650362 169.246875 
L 177.386094 169.246875 
z
" style="fill:#1f77b4;opacity:0.8;"/>
   </g>
   <g id="patch_87">
    <path clip-path="url(#paab8c7fef5)" d="M 178.650362 169.246875 
L 179.914631 169.246875 
L 179.914631 169.239569 
L 178.650362 169.239569 
z
" style="fill:#1f77b4;opacity:0.8;"/>
   </g>
   <g id="patch_88">
    <path clip-path="url(#paab8c7fef5)" d="M 179.914631 169.246875 
L 181.178899 169.246875 
L 181.178899 169.229828 
L 179.914631 169.229828 
z
" style="fill:#1f77b4;opacity:0.8;"/>
   </g>
   <g id="patch_89">
    <path clip-path="url(#paab8c7fef5)" d="M 181.178899 169.246875 
L 182.443167 169.246875 
L 182.443167 169.24444 
L 181.178899 169.24444 
z
" style="fill:#1f77b4;opacity:0.8;"/>
   </g>
   <g id="patch_90">
    <path clip-path="url(#paab8c7fef5)" d="M 182.443167 169.246875 
L 183.707436 169.246875 
L 183.707436 169.246875 
L 182.443167 169.246875 
z
" style="fill:#1f77b4;opacity:0.8;"/>
   </g>
   <g id="patch_91">
    <path clip-path="url(#paab8c7fef5)" d="M 183.707436 169.246875 
L 184.971704 169.246875 
L 184.971704 169.24444 
L 183.707436 169.24444 
z
" style="fill:#1f77b4;opacity:0.8;"/>
   </g>
   <g id="patch_92">
    <path clip-path="url(#paab8c7fef5)" d="M 184.971704 169.246875 
L 186.235973 169.246875 
L 186.235973 169.242005 
L 184.971704 169.242005 
z
" style="fill:#1f77b4;opacity:0.8;"/>
   </g>
   <g id="patch_93">
    <path clip-path="url(#paab8c7fef5)" d="M 186.235973 169.246875 
L 187.500241 169.246875 
L 187.500241 169.246875 
L 186.235973 169.246875 
z
" style="fill:#1f77b4;opacity:0.8;"/>
   </g>
   <g id="patch_94">
    <path clip-path="url(#paab8c7fef5)" d="M 187.500241 169.246875 
L 188.76451 169.246875 
L 188.76451 169.245657 
L 187.500241 169.245657 
z
" style="fill:#1f77b4;opacity:0.8;"/>
   </g>
   <g id="patch_95">
    <path clip-path="url(#paab8c7fef5)" d="M 188.76451 169.246875 
L 190.028778 169.246875 
L 190.028778 169.246875 
L 188.76451 169.246875 
z
" style="fill:#1f77b4;opacity:0.8;"/>
   </g>
   <g id="patch_96">
    <path clip-path="url(#paab8c7fef5)" d="M 190.028778 169.246875 
L 191.293047 169.246875 
L 191.293047 169.246875 
L 190.028778 169.246875 
z
" style="fill:#1f77b4;opacity:0.8;"/>
   </g>
   <g id="patch_97">
    <path clip-path="url(#paab8c7fef5)" d="M 191.293047 169.246875 
L 192.557315 169.246875 
L 192.557315 169.245657 
L 191.293047 169.245657 
z
" style="fill:#1f77b4;opacity:0.8;"/>
   </g>
   <g id="patch_98">
    <path clip-path="url(#paab8c7fef5)" d="M 192.557315 169.246875 
L 193.821584 169.246875 
L 193.821584 169.246875 
L 192.557315 169.246875 
z
" style="fill:#1f77b4;opacity:0.8;"/>
   </g>
   <g id="patch_99">
    <path clip-path="url(#paab8c7fef5)" d="M 193.821584 169.246875 
L 195.085852 169.246875 
L 195.085852 169.246875 
L 193.821584 169.246875 
z
" style="fill:#1f77b4;opacity:0.8;"/>
   </g>
   <g id="patch_100">
    <path clip-path="url(#paab8c7fef5)" d="M 195.085852 169.246875 
L 196.350121 169.246875 
L 196.350121 169.246875 
L 195.085852 169.246875 
z
" style="fill:#1f77b4;opacity:0.8;"/>
   </g>
   <g id="patch_101">
    <path clip-path="url(#paab8c7fef5)" d="M 196.350121 169.246875 
L 197.614389 169.246875 
L 197.614389 169.246875 
L 196.350121 169.246875 
z
" style="fill:#1f77b4;opacity:0.8;"/>
   </g>
   <g id="patch_102">
    <path clip-path="url(#paab8c7fef5)" d="M 197.614389 169.246875 
L 198.878658 169.246875 
L 198.878658 169.243222 
L 197.614389 169.243222 
z
" style="fill:#1f77b4;opacity:0.8;"/>
   </g>
   <g id="matplotlib.axis_1">
    <g id="xtick_1">
     <g id="line2d_1">
      <defs>
       <path d="M 0 0 
L 0 -8 
" id="m74e22cc521" style="stroke:#000000;stroke-width:0.8;"/>
      </defs>
      <g>
       <use style="stroke:#000000;stroke-width:0.8;" x="54.55" xlink:href="#m74e22cc521" y="169.246875"/>
      </g>
     </g>
     <g id="text_1">
      <!-- 0 -->
      <defs>
       <path d="M 31.78125 66.40625 
Q 24.171875 66.40625 20.328125 58.90625 
Q 16.5 51.421875 16.5 36.375 
Q 16.5 21.390625 20.328125 13.890625 
Q 24.171875 6.390625 31.78125 6.390625 
Q 39.453125 6.390625 43.28125 13.890625 
Q 47.125 21.390625 47.125 36.375 
Q 47.125 51.421875 43.28125 58.90625 
Q 39.453125 66.40625 31.78125 66.40625 
z
M 31.78125 74.21875 
Q 44.046875 74.21875 50.515625 64.515625 
Q 56.984375 54.828125 56.984375 36.375 
Q 56.984375 17.96875 50.515625 8.265625 
Q 44.046875 -1.421875 31.78125 -1.421875 
Q 19.53125 -1.421875 13.0625 8.265625 
Q 6.59375 17.96875 6.59375 36.375 
Q 6.59375 54.828125 13.0625 64.515625 
Q 19.53125 74.21875 31.78125 74.21875 
z
" id="DejaVuSans-48"/>
      </defs>
      <g transform="translate(50.09625 183.384688)scale(0.14 -0.14)">
       <use xlink:href="#DejaVuSans-48"/>
      </g>
     </g>
    </g>
    <g id="xtick_2">
     <g id="line2d_2">
      <g>
       <use style="stroke:#000000;stroke-width:0.8;" x="139.796716" xlink:href="#m74e22cc521" y="169.246875"/>
      </g>
     </g>
     <g id="text_2">
      <!-- 10 -->
      <defs>
       <path d="M 12.40625 8.296875 
L 28.515625 8.296875 
L 28.515625 63.921875 
L 10.984375 60.40625 
L 10.984375 69.390625 
L 28.421875 72.90625 
L 38.28125 72.90625 
L 38.28125 8.296875 
L 54.390625 8.296875 
L 54.390625 0 
L 12.40625 0 
z
" id="DejaVuSans-49"/>
      </defs>
      <g transform="translate(130.889216 183.384688)scale(0.14 -0.14)">
       <use xlink:href="#DejaVuSans-49"/>
       <use x="63.623047" xlink:href="#DejaVuSans-48"/>
      </g>
     </g>
    </g>
    <g id="xtick_3">
     <g id="line2d_3">
      <defs>
       <path d="M 0 0 
L 0 -5 
" id="mc70e1d7de7" style="stroke:#000000;stroke-width:0.6;"/>
      </defs>
      <g>
       <use style="stroke:#000000;stroke-width:0.6;" x="71.599343" xlink:href="#mc70e1d7de7" y="169.246875"/>
      </g>
     </g>
    </g>
    <g id="xtick_4">
     <g id="line2d_4">
      <g>
       <use style="stroke:#000000;stroke-width:0.6;" x="88.648686" xlink:href="#mc70e1d7de7" y="169.246875"/>
      </g>
     </g>
    </g>
    <g id="xtick_5">
     <g id="line2d_5">
      <g>
       <use style="stroke:#000000;stroke-width:0.6;" x="105.69803" xlink:href="#mc70e1d7de7" y="169.246875"/>
      </g>
     </g>
    </g>
    <g id="xtick_6">
     <g id="line2d_6">
      <g>
       <use style="stroke:#000000;stroke-width:0.6;" x="122.747373" xlink:href="#mc70e1d7de7" y="169.246875"/>
      </g>
     </g>
    </g>
    <g id="xtick_7">
     <g id="line2d_7">
      <g>
       <use style="stroke:#000000;stroke-width:0.6;" x="156.846059" xlink:href="#mc70e1d7de7" y="169.246875"/>
      </g>
     </g>
    </g>
    <g id="xtick_8">
     <g id="line2d_8">
      <g>
       <use style="stroke:#000000;stroke-width:0.6;" x="173.895403" xlink:href="#mc70e1d7de7" y="169.246875"/>
      </g>
     </g>
    </g>
    <g id="xtick_9">
     <g id="line2d_9">
      <g>
       <use style="stroke:#000000;stroke-width:0.6;" x="190.944746" xlink:href="#mc70e1d7de7" y="169.246875"/>
      </g>
     </g>
    </g>
    <g id="text_3">
     <!-- d (Å) -->
     <defs>
      <path d="M 45.40625 46.390625 
L 45.40625 75.984375 
L 54.390625 75.984375 
L 54.390625 0 
L 45.40625 0 
L 45.40625 8.203125 
Q 42.578125 3.328125 38.25 0.953125 
Q 33.9375 -1.421875 27.875 -1.421875 
Q 17.96875 -1.421875 11.734375 6.484375 
Q 5.515625 14.40625 5.515625 27.296875 
Q 5.515625 40.1875 11.734375 48.09375 
Q 17.96875 56 27.875 56 
Q 33.9375 56 38.25 53.625 
Q 42.578125 51.265625 45.40625 46.390625 
z
M 14.796875 27.296875 
Q 14.796875 17.390625 18.875 11.75 
Q 22.953125 6.109375 30.078125 6.109375 
Q 37.203125 6.109375 41.296875 11.75 
Q 45.40625 17.390625 45.40625 27.296875 
Q 45.40625 37.203125 41.296875 42.84375 
Q 37.203125 48.484375 30.078125 48.484375 
Q 22.953125 48.484375 18.875 42.84375 
Q 14.796875 37.203125 14.796875 27.296875 
z
" id="DejaVuSans-100"/>
      <path id="DejaVuSans-32"/>
      <path d="M 31 75.875 
Q 24.46875 64.65625 21.28125 53.65625 
Q 18.109375 42.671875 18.109375 31.390625 
Q 18.109375 20.125 21.3125 9.0625 
Q 24.515625 -2 31 -13.1875 
L 23.1875 -13.1875 
Q 15.875 -1.703125 12.234375 9.375 
Q 8.59375 20.453125 8.59375 31.390625 
Q 8.59375 42.28125 12.203125 53.3125 
Q 15.828125 64.359375 23.1875 75.875 
z
" id="DejaVuSans-40"/>
      <path d="M 41.609375 79.390625 
Q 41.609375 82.46875 39.421875 84.640625 
Q 37.25 86.8125 34.1875 86.8125 
Q 31.0625 86.8125 28.9375 84.6875 
Q 26.8125 82.5625 26.8125 79.390625 
Q 26.8125 76.3125 28.953125 74.15625 
Q 31.109375 72.015625 34.1875 72.015625 
Q 37.25 72.015625 39.421875 74.15625 
Q 41.609375 76.3125 41.609375 79.390625 
z
M 34.1875 63.1875 
L 20.90625 26.90625 
L 47.515625 26.90625 
z
M 26.8125 68.21875 
Q 23.828125 70.21875 22.3125 73.015625 
Q 20.796875 75.828125 20.796875 79.390625 
Q 20.796875 85.015625 24.671875 88.921875 
Q 28.5625 92.828125 34.1875 92.828125 
Q 39.75 92.828125 43.671875 88.890625 
Q 47.609375 84.96875 47.609375 79.390625 
Q 47.609375 75.984375 46.0625 73.09375 
Q 44.53125 70.21875 41.609375 68.21875 
L 67.578125 0 
L 57.328125 0 
L 50.6875 18.703125 
L 17.828125 18.703125 
L 11.1875 0 
L 0.78125 0 
z
" id="DejaVuSans-197"/>
      <path d="M 8.015625 75.875 
L 15.828125 75.875 
Q 23.140625 64.359375 26.78125 53.3125 
Q 30.421875 42.28125 30.421875 31.390625 
Q 30.421875 20.453125 26.78125 9.375 
Q 23.140625 -1.703125 15.828125 -13.1875 
L 8.015625 -13.1875 
Q 14.5 -2 17.703125 9.0625 
Q 20.90625 20.125 20.90625 31.390625 
Q 20.90625 42.671875 17.703125 53.65625 
Q 14.5 64.65625 8.015625 75.875 
z
" id="DejaVuSans-41"/>
     </defs>
     <g transform="translate(112.955781 202.226875)scale(0.14 -0.14)">
      <use xlink:href="#DejaVuSans-100"/>
      <use x="63.476562" xlink:href="#DejaVuSans-32"/>
      <use x="95.263672" xlink:href="#DejaVuSans-40"/>
      <use x="134.277344" xlink:href="#DejaVuSans-197"/>
      <use x="202.685547" xlink:href="#DejaVuSans-41"/>
     </g>
    </g>
   </g>
   <g id="matplotlib.axis_2">
    <g id="ytick_1">
     <g id="line2d_10">
      <defs>
       <path d="M 0 0 
L 8 0 
" id="mcbfcc3a84b" style="stroke:#000000;stroke-width:0.8;"/>
      </defs>
      <g>
       <use style="stroke:#000000;stroke-width:0.8;" x="54.55" xlink:href="#mcbfcc3a84b" y="169.246875"/>
      </g>
     </g>
     <g id="text_4">
      <!-- 0.0 -->
      <defs>
       <path d="M 10.6875 12.40625 
L 21 12.40625 
L 21 0 
L 10.6875 0 
z
" id="DejaVuSans-46"/>
      </defs>
      <g transform="translate(28.785625 174.565781)scale(0.14 -0.14)">
       <use xlink:href="#DejaVuSans-48"/>
       <use x="63.623047" xlink:href="#DejaVuSans-46"/>
       <use x="95.410156" xlink:href="#DejaVuSans-48"/>
      </g>
     </g>
    </g>
    <g id="ytick_2">
     <g id="line2d_11">
      <g>
       <use style="stroke:#000000;stroke-width:0.8;" x="54.55" xlink:href="#mcbfcc3a84b" y="118.512865"/>
      </g>
     </g>
     <g id="text_5">
      <!-- 0.1 -->
      <g transform="translate(28.785625 123.831771)scale(0.14 -0.14)">
       <use xlink:href="#DejaVuSans-48"/>
       <use x="63.623047" xlink:href="#DejaVuSans-46"/>
       <use x="95.410156" xlink:href="#DejaVuSans-49"/>
      </g>
     </g>
    </g>
    <g id="ytick_3">
     <g id="line2d_12">
      <g>
       <use style="stroke:#000000;stroke-width:0.8;" x="54.55" xlink:href="#mcbfcc3a84b" y="67.778855"/>
      </g>
     </g>
     <g id="text_6">
      <!-- 0.2 -->
      <defs>
       <path d="M 19.1875 8.296875 
L 53.609375 8.296875 
L 53.609375 0 
L 7.328125 0 
L 7.328125 8.296875 
Q 12.9375 14.109375 22.625 23.890625 
Q 32.328125 33.6875 34.8125 36.53125 
Q 39.546875 41.84375 41.421875 45.53125 
Q 43.3125 49.21875 43.3125 52.78125 
Q 43.3125 58.59375 39.234375 62.25 
Q 35.15625 65.921875 28.609375 65.921875 
Q 23.96875 65.921875 18.8125 64.3125 
Q 13.671875 62.703125 7.8125 59.421875 
L 7.8125 69.390625 
Q 13.765625 71.78125 18.9375 73 
Q 24.125 74.21875 28.421875 74.21875 
Q 39.75 74.21875 46.484375 68.546875 
Q 53.21875 62.890625 53.21875 53.421875 
Q 53.21875 48.921875 51.53125 44.890625 
Q 49.859375 40.875 45.40625 35.40625 
Q 44.1875 33.984375 37.640625 27.21875 
Q 31.109375 20.453125 19.1875 8.296875 
z
" id="DejaVuSans-50"/>
      </defs>
      <g transform="translate(28.785625 73.097761)scale(0.14 -0.14)">
       <use xlink:href="#DejaVuSans-48"/>
       <use x="63.623047" xlink:href="#DejaVuSans-46"/>
       <use x="95.410156" xlink:href="#DejaVuSans-50"/>
      </g>
     </g>
    </g>
    <g id="ytick_4">
     <g id="line2d_13">
      <g>
       <use style="stroke:#000000;stroke-width:0.8;" x="54.55" xlink:href="#mcbfcc3a84b" y="17.044845"/>
      </g>
     </g>
     <g id="text_7">
      <!-- 0.3 -->
      <defs>
       <path d="M 40.578125 39.3125 
Q 47.65625 37.796875 51.625 33 
Q 55.609375 28.21875 55.609375 21.1875 
Q 55.609375 10.40625 48.1875 4.484375 
Q 40.765625 -1.421875 27.09375 -1.421875 
Q 22.515625 -1.421875 17.65625 -0.515625 
Q 12.796875 0.390625 7.625 2.203125 
L 7.625 11.71875 
Q 11.71875 9.328125 16.59375 8.109375 
Q 21.484375 6.890625 26.8125 6.890625 
Q 36.078125 6.890625 40.9375 10.546875 
Q 45.796875 14.203125 45.796875 21.1875 
Q 45.796875 27.640625 41.28125 31.265625 
Q 36.765625 34.90625 28.71875 34.90625 
L 20.21875 34.90625 
L 20.21875 43.015625 
L 29.109375 43.015625 
Q 36.375 43.015625 40.234375 45.921875 
Q 44.09375 48.828125 44.09375 54.296875 
Q 44.09375 59.90625 40.109375 62.90625 
Q 36.140625 65.921875 28.71875 65.921875 
Q 24.65625 65.921875 20.015625 65.03125 
Q 15.375 64.15625 9.8125 62.3125 
L 9.8125 71.09375 
Q 15.4375 72.65625 20.34375 73.4375 
Q 25.25 74.21875 29.59375 74.21875 
Q 40.828125 74.21875 47.359375 69.109375 
Q 53.90625 64.015625 53.90625 55.328125 
Q 53.90625 49.265625 50.4375 45.09375 
Q 46.96875 40.921875 40.578125 39.3125 
z
" id="DejaVuSans-51"/>
      </defs>
      <g transform="translate(28.785625 22.363751)scale(0.14 -0.14)">
       <use xlink:href="#DejaVuSans-48"/>
       <use x="63.623047" xlink:href="#DejaVuSans-46"/>
       <use x="95.410156" xlink:href="#DejaVuSans-51"/>
      </g>
     </g>
    </g>
    <g id="ytick_5">
     <g id="line2d_14">
      <defs>
       <path d="M 0 0 
L 5 0 
" id="mb8466bfca9" style="stroke:#000000;stroke-width:0.6;"/>
      </defs>
      <g>
       <use style="stroke:#000000;stroke-width:0.6;" x="54.55" xlink:href="#mb8466bfca9" y="159.100073"/>
      </g>
     </g>
    </g>
    <g id="ytick_6">
     <g id="line2d_15">
      <g>
       <use style="stroke:#000000;stroke-width:0.6;" x="54.55" xlink:href="#mb8466bfca9" y="148.953271"/>
      </g>
     </g>
    </g>
    <g id="ytick_7">
     <g id="line2d_16">
      <g>
       <use style="stroke:#000000;stroke-width:0.6;" x="54.55" xlink:href="#mb8466bfca9" y="138.806469"/>
      </g>
     </g>
    </g>
    <g id="ytick_8">
     <g id="line2d_17">
      <g>
       <use style="stroke:#000000;stroke-width:0.6;" x="54.55" xlink:href="#mb8466bfca9" y="128.659667"/>
      </g>
     </g>
    </g>
    <g id="ytick_9">
     <g id="line2d_18">
      <g>
       <use style="stroke:#000000;stroke-width:0.6;" x="54.55" xlink:href="#mb8466bfca9" y="108.366063"/>
      </g>
     </g>
    </g>
    <g id="ytick_10">
     <g id="line2d_19">
      <g>
       <use style="stroke:#000000;stroke-width:0.6;" x="54.55" xlink:href="#mb8466bfca9" y="98.219261"/>
      </g>
     </g>
    </g>
    <g id="ytick_11">
     <g id="line2d_20">
      <g>
       <use style="stroke:#000000;stroke-width:0.6;" x="54.55" xlink:href="#mb8466bfca9" y="88.072459"/>
      </g>
     </g>
    </g>
    <g id="ytick_12">
     <g id="line2d_21">
      <g>
       <use style="stroke:#000000;stroke-width:0.6;" x="54.55" xlink:href="#mb8466bfca9" y="77.925657"/>
      </g>
     </g>
    </g>
    <g id="ytick_13">
     <g id="line2d_22">
      <g>
       <use style="stroke:#000000;stroke-width:0.6;" x="54.55" xlink:href="#mb8466bfca9" y="57.632053"/>
      </g>
     </g>
    </g>
    <g id="ytick_14">
     <g id="line2d_23">
      <g>
       <use style="stroke:#000000;stroke-width:0.6;" x="54.55" xlink:href="#mb8466bfca9" y="47.485251"/>
      </g>
     </g>
    </g>
    <g id="ytick_15">
     <g id="line2d_24">
      <g>
       <use style="stroke:#000000;stroke-width:0.6;" x="54.55" xlink:href="#mb8466bfca9" y="37.338449"/>
      </g>
     </g>
    </g>
    <g id="ytick_16">
     <g id="line2d_25">
      <g>
       <use style="stroke:#000000;stroke-width:0.6;" x="54.55" xlink:href="#mb8466bfca9" y="27.191647"/>
      </g>
     </g>
    </g>
    <g id="text_8">
     <!-- Histogram displacement -->
     <defs>
      <path d="M 9.8125 72.90625 
L 19.671875 72.90625 
L 19.671875 43.015625 
L 55.515625 43.015625 
L 55.515625 72.90625 
L 65.375 72.90625 
L 65.375 0 
L 55.515625 0 
L 55.515625 34.71875 
L 19.671875 34.71875 
L 19.671875 0 
L 9.8125 0 
z
" id="DejaVuSans-72"/>
      <path d="M 9.421875 54.6875 
L 18.40625 54.6875 
L 18.40625 0 
L 9.421875 0 
z
M 9.421875 75.984375 
L 18.40625 75.984375 
L 18.40625 64.59375 
L 9.421875 64.59375 
z
" id="DejaVuSans-105"/>
      <path d="M 44.28125 53.078125 
L 44.28125 44.578125 
Q 40.484375 46.53125 36.375 47.5 
Q 32.28125 48.484375 27.875 48.484375 
Q 21.1875 48.484375 17.84375 46.4375 
Q 14.5 44.390625 14.5 40.28125 
Q 14.5 37.15625 16.890625 35.375 
Q 19.28125 33.59375 26.515625 31.984375 
L 29.59375 31.296875 
Q 39.15625 29.25 43.1875 25.515625 
Q 47.21875 21.78125 47.21875 15.09375 
Q 47.21875 7.46875 41.1875 3.015625 
Q 35.15625 -1.421875 24.609375 -1.421875 
Q 20.21875 -1.421875 15.453125 -0.5625 
Q 10.6875 0.296875 5.421875 2 
L 5.421875 11.28125 
Q 10.40625 8.6875 15.234375 7.390625 
Q 20.0625 6.109375 24.8125 6.109375 
Q 31.15625 6.109375 34.5625 8.28125 
Q 37.984375 10.453125 37.984375 14.40625 
Q 37.984375 18.0625 35.515625 20.015625 
Q 33.0625 21.96875 24.703125 23.78125 
L 21.578125 24.515625 
Q 13.234375 26.265625 9.515625 29.90625 
Q 5.8125 33.546875 5.8125 39.890625 
Q 5.8125 47.609375 11.28125 51.796875 
Q 16.75 56 26.8125 56 
Q 31.78125 56 36.171875 55.265625 
Q 40.578125 54.546875 44.28125 53.078125 
z
" id="DejaVuSans-115"/>
      <path d="M 18.3125 70.21875 
L 18.3125 54.6875 
L 36.8125 54.6875 
L 36.8125 47.703125 
L 18.3125 47.703125 
L 18.3125 18.015625 
Q 18.3125 11.328125 20.140625 9.421875 
Q 21.96875 7.515625 27.59375 7.515625 
L 36.8125 7.515625 
L 36.8125 0 
L 27.59375 0 
Q 17.1875 0 13.234375 3.875 
Q 9.28125 7.765625 9.28125 18.015625 
L 9.28125 47.703125 
L 2.6875 47.703125 
L 2.6875 54.6875 
L 9.28125 54.6875 
L 9.28125 70.21875 
z
" id="DejaVuSans-116"/>
      <path d="M 30.609375 48.390625 
Q 23.390625 48.390625 19.1875 42.75 
Q 14.984375 37.109375 14.984375 27.296875 
Q 14.984375 17.484375 19.15625 11.84375 
Q 23.34375 6.203125 30.609375 6.203125 
Q 37.796875 6.203125 41.984375 11.859375 
Q 46.1875 17.53125 46.1875 27.296875 
Q 46.1875 37.015625 41.984375 42.703125 
Q 37.796875 48.390625 30.609375 48.390625 
z
M 30.609375 56 
Q 42.328125 56 49.015625 48.375 
Q 55.71875 40.765625 55.71875 27.296875 
Q 55.71875 13.875 49.015625 6.21875 
Q 42.328125 -1.421875 30.609375 -1.421875 
Q 18.84375 -1.421875 12.171875 6.21875 
Q 5.515625 13.875 5.515625 27.296875 
Q 5.515625 40.765625 12.171875 48.375 
Q 18.84375 56 30.609375 56 
z
" id="DejaVuSans-111"/>
      <path d="M 45.40625 27.984375 
Q 45.40625 37.75 41.375 43.109375 
Q 37.359375 48.484375 30.078125 48.484375 
Q 22.859375 48.484375 18.828125 43.109375 
Q 14.796875 37.75 14.796875 27.984375 
Q 14.796875 18.265625 18.828125 12.890625 
Q 22.859375 7.515625 30.078125 7.515625 
Q 37.359375 7.515625 41.375 12.890625 
Q 45.40625 18.265625 45.40625 27.984375 
z
M 54.390625 6.78125 
Q 54.390625 -7.171875 48.1875 -13.984375 
Q 42 -20.796875 29.203125 -20.796875 
Q 24.46875 -20.796875 20.265625 -20.09375 
Q 16.0625 -19.390625 12.109375 -17.921875 
L 12.109375 -9.1875 
Q 16.0625 -11.328125 19.921875 -12.34375 
Q 23.78125 -13.375 27.78125 -13.375 
Q 36.625 -13.375 41.015625 -8.765625 
Q 45.40625 -4.15625 45.40625 5.171875 
L 45.40625 9.625 
Q 42.625 4.78125 38.28125 2.390625 
Q 33.9375 0 27.875 0 
Q 17.828125 0 11.671875 7.65625 
Q 5.515625 15.328125 5.515625 27.984375 
Q 5.515625 40.671875 11.671875 48.328125 
Q 17.828125 56 27.875 56 
Q 33.9375 56 38.28125 53.609375 
Q 42.625 51.21875 45.40625 46.390625 
L 45.40625 54.6875 
L 54.390625 54.6875 
z
" id="DejaVuSans-103"/>
      <path d="M 41.109375 46.296875 
Q 39.59375 47.171875 37.8125 47.578125 
Q 36.03125 48 33.890625 48 
Q 26.265625 48 22.1875 43.046875 
Q 18.109375 38.09375 18.109375 28.8125 
L 18.109375 0 
L 9.078125 0 
L 9.078125 54.6875 
L 18.109375 54.6875 
L 18.109375 46.1875 
Q 20.953125 51.171875 25.484375 53.578125 
Q 30.03125 56 36.53125 56 
Q 37.453125 56 38.578125 55.875 
Q 39.703125 55.765625 41.0625 55.515625 
z
" id="DejaVuSans-114"/>
      <path d="M 34.28125 27.484375 
Q 23.390625 27.484375 19.1875 25 
Q 14.984375 22.515625 14.984375 16.5 
Q 14.984375 11.71875 18.140625 8.90625 
Q 21.296875 6.109375 26.703125 6.109375 
Q 34.1875 6.109375 38.703125 11.40625 
Q 43.21875 16.703125 43.21875 25.484375 
L 43.21875 27.484375 
z
M 52.203125 31.203125 
L 52.203125 0 
L 43.21875 0 
L 43.21875 8.296875 
Q 40.140625 3.328125 35.546875 0.953125 
Q 30.953125 -1.421875 24.3125 -1.421875 
Q 15.921875 -1.421875 10.953125 3.296875 
Q 6 8.015625 6 15.921875 
Q 6 25.140625 12.171875 29.828125 
Q 18.359375 34.515625 30.609375 34.515625 
L 43.21875 34.515625 
L 43.21875 35.40625 
Q 43.21875 41.609375 39.140625 45 
Q 35.0625 48.390625 27.6875 48.390625 
Q 23 48.390625 18.546875 47.265625 
Q 14.109375 46.140625 10.015625 43.890625 
L 10.015625 52.203125 
Q 14.9375 54.109375 19.578125 55.046875 
Q 24.21875 56 28.609375 56 
Q 40.484375 56 46.34375 49.84375 
Q 52.203125 43.703125 52.203125 31.203125 
z
" id="DejaVuSans-97"/>
      <path d="M 52 44.1875 
Q 55.375 50.25 60.0625 53.125 
Q 64.75 56 71.09375 56 
Q 79.640625 56 84.28125 50.015625 
Q 88.921875 44.046875 88.921875 33.015625 
L 88.921875 0 
L 79.890625 0 
L 79.890625 32.71875 
Q 79.890625 40.578125 77.09375 44.375 
Q 74.3125 48.1875 68.609375 48.1875 
Q 61.625 48.1875 57.5625 43.546875 
Q 53.515625 38.921875 53.515625 30.90625 
L 53.515625 0 
L 44.484375 0 
L 44.484375 32.71875 
Q 44.484375 40.625 41.703125 44.40625 
Q 38.921875 48.1875 33.109375 48.1875 
Q 26.21875 48.1875 22.15625 43.53125 
Q 18.109375 38.875 18.109375 30.90625 
L 18.109375 0 
L 9.078125 0 
L 9.078125 54.6875 
L 18.109375 54.6875 
L 18.109375 46.1875 
Q 21.1875 51.21875 25.484375 53.609375 
Q 29.78125 56 35.6875 56 
Q 41.65625 56 45.828125 52.96875 
Q 50 49.953125 52 44.1875 
z
" id="DejaVuSans-109"/>
      <path d="M 18.109375 8.203125 
L 18.109375 -20.796875 
L 9.078125 -20.796875 
L 9.078125 54.6875 
L 18.109375 54.6875 
L 18.109375 46.390625 
Q 20.953125 51.265625 25.265625 53.625 
Q 29.59375 56 35.59375 56 
Q 45.5625 56 51.78125 48.09375 
Q 58.015625 40.1875 58.015625 27.296875 
Q 58.015625 14.40625 51.78125 6.484375 
Q 45.5625 -1.421875 35.59375 -1.421875 
Q 29.59375 -1.421875 25.265625 0.953125 
Q 20.953125 3.328125 18.109375 8.203125 
z
M 48.6875 27.296875 
Q 48.6875 37.203125 44.609375 42.84375 
Q 40.53125 48.484375 33.40625 48.484375 
Q 26.265625 48.484375 22.1875 42.84375 
Q 18.109375 37.203125 18.109375 27.296875 
Q 18.109375 17.390625 22.1875 11.75 
Q 26.265625 6.109375 33.40625 6.109375 
Q 40.53125 6.109375 44.609375 11.75 
Q 48.6875 17.390625 48.6875 27.296875 
z
" id="DejaVuSans-112"/>
      <path d="M 9.421875 75.984375 
L 18.40625 75.984375 
L 18.40625 0 
L 9.421875 0 
z
" id="DejaVuSans-108"/>
      <path d="M 48.78125 52.59375 
L 48.78125 44.1875 
Q 44.96875 46.296875 41.140625 47.34375 
Q 37.3125 48.390625 33.40625 48.390625 
Q 24.65625 48.390625 19.8125 42.84375 
Q 14.984375 37.3125 14.984375 27.296875 
Q 14.984375 17.28125 19.8125 11.734375 
Q 24.65625 6.203125 33.40625 6.203125 
Q 37.3125 6.203125 41.140625 7.25 
Q 44.96875 8.296875 48.78125 10.40625 
L 48.78125 2.09375 
Q 45.015625 0.34375 40.984375 -0.53125 
Q 36.96875 -1.421875 32.421875 -1.421875 
Q 20.0625 -1.421875 12.78125 6.34375 
Q 5.515625 14.109375 5.515625 27.296875 
Q 5.515625 40.671875 12.859375 48.328125 
Q 20.21875 56 33.015625 56 
Q 37.15625 56 41.109375 55.140625 
Q 45.0625 54.296875 48.78125 52.59375 
z
" id="DejaVuSans-99"/>
      <path d="M 56.203125 29.59375 
L 56.203125 25.203125 
L 14.890625 25.203125 
Q 15.484375 15.921875 20.484375 11.0625 
Q 25.484375 6.203125 34.421875 6.203125 
Q 39.59375 6.203125 44.453125 7.46875 
Q 49.3125 8.734375 54.109375 11.28125 
L 54.109375 2.78125 
Q 49.265625 0.734375 44.1875 -0.34375 
Q 39.109375 -1.421875 33.890625 -1.421875 
Q 20.796875 -1.421875 13.15625 6.1875 
Q 5.515625 13.8125 5.515625 26.8125 
Q 5.515625 40.234375 12.765625 48.109375 
Q 20.015625 56 32.328125 56 
Q 43.359375 56 49.78125 48.890625 
Q 56.203125 41.796875 56.203125 29.59375 
z
M 47.21875 32.234375 
Q 47.125 39.59375 43.09375 43.984375 
Q 39.0625 48.390625 32.421875 48.390625 
Q 24.90625 48.390625 20.390625 44.140625 
Q 15.875 39.890625 15.1875 32.171875 
z
" id="DejaVuSans-101"/>
      <path d="M 54.890625 33.015625 
L 54.890625 0 
L 45.90625 0 
L 45.90625 32.71875 
Q 45.90625 40.484375 42.875 44.328125 
Q 39.84375 48.1875 33.796875 48.1875 
Q 26.515625 48.1875 22.3125 43.546875 
Q 18.109375 38.921875 18.109375 30.90625 
L 18.109375 0 
L 9.078125 0 
L 9.078125 54.6875 
L 18.109375 54.6875 
L 18.109375 46.1875 
Q 21.34375 51.125 25.703125 53.5625 
Q 30.078125 56 35.796875 56 
Q 45.21875 56 50.046875 50.171875 
Q 54.890625 44.34375 54.890625 33.015625 
z
" id="DejaVuSans-110"/>
     </defs>
     <g transform="translate(21.874062 177.125)rotate(-90)scale(0.14 -0.14)">
      <use xlink:href="#DejaVuSans-72"/>
      <use x="75.195312" xlink:href="#DejaVuSans-105"/>
      <use x="102.978516" xlink:href="#DejaVuSans-115"/>
      <use x="155.078125" xlink:href="#DejaVuSans-116"/>
      <use x="194.287109" xlink:href="#DejaVuSans-111"/>
      <use x="255.46875" xlink:href="#DejaVuSans-103"/>
      <use x="318.945312" xlink:href="#DejaVuSans-114"/>
      <use x="360.058594" xlink:href="#DejaVuSans-97"/>
      <use x="421.337891" xlink:href="#DejaVuSans-109"/>
      <use x="518.75" xlink:href="#DejaVuSans-32"/>
      <use x="550.537109" xlink:href="#DejaVuSans-100"/>
      <use x="614.013672" xlink:href="#DejaVuSans-105"/>
      <use x="641.796875" xlink:href="#DejaVuSans-115"/>
      <use x="693.896484" xlink:href="#DejaVuSans-112"/>
      <use x="757.373047" xlink:href="#DejaVuSans-108"/>
      <use x="785.15625" xlink:href="#DejaVuSans-97"/>
      <use x="846.435547" xlink:href="#DejaVuSans-99"/>
      <use x="901.416016" xlink:href="#DejaVuSans-101"/>
      <use x="962.939453" xlink:href="#DejaVuSans-109"/>
      <use x="1060.351562" xlink:href="#DejaVuSans-101"/>
      <use x="1121.875" xlink:href="#DejaVuSans-110"/>
      <use x="1185.253906" xlink:href="#DejaVuSans-116"/>
     </g>
    </g>
   </g>
   <g id="patch_103">
    <path d="M 54.55 169.246875 
L 54.55 13.5775 
" style="fill:none;stroke:#000000;stroke-linecap:square;stroke-linejoin:miter;stroke-width:0.8;"/>
   </g>
   <g id="patch_104">
    <path d="M 205.2 169.246875 
L 205.2 13.5775 
" style="fill:none;stroke:#000000;stroke-linecap:square;stroke-linejoin:miter;stroke-width:0.8;"/>
   </g>
   <g id="patch_105">
    <path d="M 54.55 169.246875 
L 205.2 169.246875 
" style="fill:none;stroke:#000000;stroke-linecap:square;stroke-linejoin:miter;stroke-width:0.8;"/>
   </g>
   <g id="patch_106">
    <path d="M 54.55 13.5775 
L 205.2 13.5775 
" style="fill:none;stroke:#000000;stroke-linecap:square;stroke-linejoin:miter;stroke-width:0.8;"/>
   </g>
  </g>
 </g>
 <defs>
  <clipPath id="paab8c7fef5">
   <rect height="155.669375" width="150.65" x="54.55" y="13.5775"/>
  </clipPath>
 </defs>
</svg>
