<?xml version="1.0" encoding="utf-8" standalone="no"?>
<!DOCTYPE svg PUBLIC "-//W3C//DTD SVG 1.1//EN"
  "http://www.w3.org/Graphics/SVG/1.1/DTD/svg11.dtd">
<!-- Created with matplotlib (https://matplotlib.org/) -->
<svg height="216pt" version="1.1" viewBox="0 0 216 216" width="216pt" xmlns="http://www.w3.org/2000/svg" xmlns:xlink="http://www.w3.org/1999/xlink">
 <defs>
  <style type="text/css">
*{stroke-linecap:butt;stroke-linejoin:round;}
  </style>
 </defs>
 <g id="figure_1">
  <g id="patch_1">
   <path d="M 0 216 
L 216 216 
L 216 0 
L 0 0 
z
" style="fill:none;"/>
  </g>
  <g id="axes_1">
   <g id="patch_2">
    <path d="M 54.55 169.246875 
L 205.2 169.246875 
L 205.2 13.5775 
L 54.55 13.5775 
z
" style="fill:none;"/>
   </g>
   <g id="patch_3">
    <path clip-path="url(#p6b3a3bcaf5)" d="M 69.835571 169.246875 
L 71.124756 169.246875 
L 71.124756 20.990327 
L 69.835571 20.990327 
z
" style="fill:#1f77b4;opacity:0.8;"/>
   </g>
   <g id="patch_4">
    <path clip-path="url(#p6b3a3bcaf5)" d="M 71.124756 169.246875 
L 72.413941 169.246875 
L 72.413941 169.246875 
L 71.124756 169.246875 
z
" style="fill:#1f77b4;opacity:0.8;"/>
   </g>
   <g id="patch_5">
    <path clip-path="url(#p6b3a3bcaf5)" d="M 72.413941 169.246875 
L 73.703126 169.246875 
L 73.703126 169.246875 
L 72.413941 169.246875 
z
" style="fill:#1f77b4;opacity:0.8;"/>
   </g>
   <g id="patch_6">
    <path clip-path="url(#p6b3a3bcaf5)" d="M 73.703126 169.246875 
L 74.992311 169.246875 
L 74.992311 169.246875 
L 73.703126 169.246875 
z
" style="fill:#1f77b4;opacity:0.8;"/>
   </g>
   <g id="patch_7">
    <path clip-path="url(#p6b3a3bcaf5)" d="M 74.992311 169.246875 
L 76.281496 169.246875 
L 76.281496 59.091234 
L 74.992311 59.091234 
z
" style="fill:#1f77b4;opacity:0.8;"/>
   </g>
   <g id="patch_8">
    <path clip-path="url(#p6b3a3bcaf5)" d="M 76.281496 169.246875 
L 77.570681 169.246875 
L 77.570681 169.246875 
L 76.281496 169.246875 
z
" style="fill:#1f77b4;opacity:0.8;"/>
   </g>
   <g id="patch_9">
    <path clip-path="url(#p6b3a3bcaf5)" d="M 77.570681 169.246875 
L 78.859866 169.246875 
L 78.859866 169.246875 
L 77.570681 169.246875 
z
" style="fill:#1f77b4;opacity:0.8;"/>
   </g>
   <g id="patch_10">
    <path clip-path="url(#p6b3a3bcaf5)" d="M 78.859866 169.246875 
L 80.149051 169.246875 
L 80.149051 169.246875 
L 78.859866 169.246875 
z
" style="fill:#1f77b4;opacity:0.8;"/>
   </g>
   <g id="patch_11">
    <path clip-path="url(#p6b3a3bcaf5)" d="M 80.149051 169.246875 
L 81.438236 169.246875 
L 81.438236 133.016068 
L 80.149051 133.016068 
z
" style="fill:#1f77b4;opacity:0.8;"/>
   </g>
   <g id="patch_12">
    <path clip-path="url(#p6b3a3bcaf5)" d="M 81.438236 169.246875 
L 82.727421 169.246875 
L 82.727421 169.246875 
L 81.438236 169.246875 
z
" style="fill:#1f77b4;opacity:0.8;"/>
   </g>
   <g id="patch_13">
    <path clip-path="url(#p6b3a3bcaf5)" d="M 82.727421 169.246875 
L 84.016606 169.246875 
L 84.016606 169.246875 
L 82.727421 169.246875 
z
" style="fill:#1f77b4;opacity:0.8;"/>
   </g>
   <g id="patch_14">
    <path clip-path="url(#p6b3a3bcaf5)" d="M 84.016606 169.246875 
L 85.305791 169.246875 
L 85.305791 153.148022 
L 84.016606 153.148022 
z
" style="fill:#1f77b4;opacity:0.8;"/>
   </g>
   <g id="patch_15">
    <path clip-path="url(#p6b3a3bcaf5)" d="M 85.305791 169.246875 
L 86.594976 169.246875 
L 86.594976 169.246875 
L 85.305791 169.246875 
z
" style="fill:#1f77b4;opacity:0.8;"/>
   </g>
   <g id="patch_16">
    <path clip-path="url(#p6b3a3bcaf5)" d="M 86.594976 169.246875 
L 87.884161 169.246875 
L 87.884161 169.246875 
L 86.594976 169.246875 
z
" style="fill:#1f77b4;opacity:0.8;"/>
   </g>
   <g id="patch_17">
    <path clip-path="url(#p6b3a3bcaf5)" d="M 87.884161 169.246875 
L 89.173346 169.246875 
L 89.173346 128.758882 
L 87.884161 128.758882 
z
" style="fill:#1f77b4;opacity:0.8;"/>
   </g>
   <g id="patch_18">
    <path clip-path="url(#p6b3a3bcaf5)" d="M 89.173346 169.246875 
L 90.462531 169.246875 
L 90.462531 169.246875 
L 89.173346 169.246875 
z
" style="fill:#1f77b4;opacity:0.8;"/>
   </g>
   <g id="patch_19">
    <path clip-path="url(#p6b3a3bcaf5)" d="M 90.462531 169.246875 
L 91.751716 169.246875 
L 91.751716 169.246875 
L 90.462531 169.246875 
z
" style="fill:#1f77b4;opacity:0.8;"/>
   </g>
   <g id="patch_20">
    <path clip-path="url(#p6b3a3bcaf5)" d="M 91.751716 169.246875 
L 93.040902 169.246875 
L 93.040902 140.888291 
L 91.751716 140.888291 
z
" style="fill:#1f77b4;opacity:0.8;"/>
   </g>
   <g id="patch_21">
    <path clip-path="url(#p6b3a3bcaf5)" d="M 93.040902 169.246875 
L 94.330087 169.246875 
L 94.330087 169.246875 
L 93.040902 169.246875 
z
" style="fill:#1f77b4;opacity:0.8;"/>
   </g>
   <g id="patch_22">
    <path clip-path="url(#p6b3a3bcaf5)" d="M 94.330087 169.246875 
L 95.619272 169.246875 
L 95.619272 169.246875 
L 94.330087 169.246875 
z
" style="fill:#1f77b4;opacity:0.8;"/>
   </g>
   <g id="patch_23">
    <path clip-path="url(#p6b3a3bcaf5)" d="M 95.619272 169.246875 
L 96.908457 169.246875 
L 96.908457 169.246875 
L 95.619272 169.246875 
z
" style="fill:#1f77b4;opacity:0.8;"/>
   </g>
   <g id="patch_24">
    <path clip-path="url(#p6b3a3bcaf5)" d="M 96.908457 169.246875 
L 98.197642 169.246875 
L 98.197642 161.647769 
L 96.908457 161.647769 
z
" style="fill:#1f77b4;opacity:0.8;"/>
   </g>
   <g id="patch_25">
    <path clip-path="url(#p6b3a3bcaf5)" d="M 98.197642 169.246875 
L 99.486827 169.246875 
L 99.486827 169.246875 
L 98.197642 169.246875 
z
" style="fill:#1f77b4;opacity:0.8;"/>
   </g>
   <g id="patch_26">
    <path clip-path="url(#p6b3a3bcaf5)" d="M 99.486827 169.246875 
L 100.776012 169.246875 
L 100.776012 153.898126 
L 99.486827 153.898126 
z
" style="fill:#1f77b4;opacity:0.8;"/>
   </g>
   <g id="patch_27">
    <path clip-path="url(#p6b3a3bcaf5)" d="M 100.776012 169.246875 
L 102.065197 169.246875 
L 102.065197 169.246875 
L 100.776012 169.246875 
z
" style="fill:#1f77b4;opacity:0.8;"/>
   </g>
   <g id="patch_28">
    <path clip-path="url(#p6b3a3bcaf5)" d="M 102.065197 169.246875 
L 103.354382 169.246875 
L 103.354382 159.538101 
L 102.065197 159.538101 
z
" style="fill:#1f77b4;opacity:0.8;"/>
   </g>
   <g id="patch_29">
    <path clip-path="url(#p6b3a3bcaf5)" d="M 103.354382 169.246875 
L 104.643567 169.246875 
L 104.643567 169.246875 
L 103.354382 169.246875 
z
" style="fill:#1f77b4;opacity:0.8;"/>
   </g>
   <g id="patch_30">
    <path clip-path="url(#p6b3a3bcaf5)" d="M 104.643567 169.246875 
L 105.932752 169.246875 
L 105.932752 162.043466 
L 104.643567 162.043466 
z
" style="fill:#1f77b4;opacity:0.8;"/>
   </g>
   <g id="patch_31">
    <path clip-path="url(#p6b3a3bcaf5)" d="M 105.932752 169.246875 
L 107.221937 169.246875 
L 107.221937 169.246875 
L 105.932752 169.246875 
z
" style="fill:#1f77b4;opacity:0.8;"/>
   </g>
   <g id="patch_32">
    <path clip-path="url(#p6b3a3bcaf5)" d="M 107.221937 169.246875 
L 108.511122 169.246875 
L 108.511122 167.249895 
L 107.221937 167.249895 
z
" style="fill:#1f77b4;opacity:0.8;"/>
   </g>
   <g id="patch_33">
    <path clip-path="url(#p6b3a3bcaf5)" d="M 108.511122 169.246875 
L 109.800307 169.246875 
L 109.800307 164.527326 
L 108.511122 164.527326 
z
" style="fill:#1f77b4;opacity:0.8;"/>
   </g>
   <g id="patch_34">
    <path clip-path="url(#p6b3a3bcaf5)" d="M 109.800307 169.246875 
L 111.089492 169.246875 
L 111.089492 169.246875 
L 109.800307 169.246875 
z
" style="fill:#1f77b4;opacity:0.8;"/>
   </g>
   <g id="patch_35">
    <path clip-path="url(#p6b3a3bcaf5)" d="M 111.089492 169.246875 
L 112.378677 169.246875 
L 112.378677 162.151423 
L 111.089492 162.151423 
z
" style="fill:#1f77b4;opacity:0.8;"/>
   </g>
   <g id="patch_36">
    <path clip-path="url(#p6b3a3bcaf5)" d="M 112.378677 169.246875 
L 113.667862 169.246875 
L 113.667862 169.246875 
L 112.378677 169.246875 
z
" style="fill:#1f77b4;opacity:0.8;"/>
   </g>
   <g id="patch_37">
    <path clip-path="url(#p6b3a3bcaf5)" d="M 113.667862 169.246875 
L 114.957047 169.246875 
L 114.957047 169.246875 
L 113.667862 169.246875 
z
" style="fill:#1f77b4;opacity:0.8;"/>
   </g>
   <g id="patch_38">
    <path clip-path="url(#p6b3a3bcaf5)" d="M 114.957047 169.246875 
L 116.246232 169.246875 
L 116.246232 168.629673 
L 114.957047 168.629673 
z
" style="fill:#1f77b4;opacity:0.8;"/>
   </g>
   <g id="patch_39">
    <path clip-path="url(#p6b3a3bcaf5)" d="M 116.246232 169.246875 
L 117.535417 169.246875 
L 117.535417 169.246875 
L 116.246232 169.246875 
z
" style="fill:#1f77b4;opacity:0.8;"/>
   </g>
   <g id="patch_40">
    <path clip-path="url(#p6b3a3bcaf5)" d="M 117.535417 169.246875 
L 118.824602 169.246875 
L 118.824602 165.252484 
L 117.535417 165.252484 
z
" style="fill:#1f77b4;opacity:0.8;"/>
   </g>
   <g id="patch_41">
    <path clip-path="url(#p6b3a3bcaf5)" d="M 118.824602 169.246875 
L 120.113787 169.246875 
L 120.113787 166.837853 
L 118.824602 166.837853 
z
" style="fill:#1f77b4;opacity:0.8;"/>
   </g>
   <g id="patch_42">
    <path clip-path="url(#p6b3a3bcaf5)" d="M 120.113787 169.246875 
L 121.402972 169.246875 
L 121.402972 168.04731 
L 120.113787 168.04731 
z
" style="fill:#1f77b4;opacity:0.8;"/>
   </g>
   <g id="patch_43">
    <path clip-path="url(#p6b3a3bcaf5)" d="M 121.402972 169.246875 
L 122.692157 169.246875 
L 122.692157 169.246875 
L 121.402972 169.246875 
z
" style="fill:#1f77b4;opacity:0.8;"/>
   </g>
   <g id="patch_44">
    <path clip-path="url(#p6b3a3bcaf5)" d="M 122.692157 169.246875 
L 123.981342 169.246875 
L 123.981342 168.150106 
L 122.692157 168.150106 
z
" style="fill:#1f77b4;opacity:0.8;"/>
   </g>
   <g id="patch_45">
    <path clip-path="url(#p6b3a3bcaf5)" d="M 123.981342 169.246875 
L 125.270528 169.246875 
L 125.270528 167.39398 
L 123.981342 167.39398 
z
" style="fill:#1f77b4;opacity:0.8;"/>
   </g>
   <g id="patch_46">
    <path clip-path="url(#p6b3a3bcaf5)" d="M 125.270528 169.246875 
L 126.559713 169.246875 
L 126.559713 168.548383 
L 125.270528 168.548383 
z
" style="fill:#1f77b4;opacity:0.8;"/>
   </g>
   <g id="patch_47">
    <path clip-path="url(#p6b3a3bcaf5)" d="M 126.559713 169.246875 
L 127.848898 169.246875 
L 127.848898 169.246875 
L 126.559713 169.246875 
z
" style="fill:#1f77b4;opacity:0.8;"/>
   </g>
   <g id="patch_48">
    <path clip-path="url(#p6b3a3bcaf5)" d="M 127.848898 169.246875 
L 129.138083 169.246875 
L 129.138083 169.246875 
L 127.848898 169.246875 
z
" style="fill:#1f77b4;opacity:0.8;"/>
   </g>
   <g id="patch_49">
    <path clip-path="url(#p6b3a3bcaf5)" d="M 129.138083 169.246875 
L 130.427268 169.246875 
L 130.427268 168.740211 
L 129.138083 168.740211 
z
" style="fill:#1f77b4;opacity:0.8;"/>
   </g>
   <g id="patch_50">
    <path clip-path="url(#p6b3a3bcaf5)" d="M 130.427268 169.246875 
L 131.716453 169.246875 
L 131.716453 168.790963 
L 130.427268 168.790963 
z
" style="fill:#1f77b4;opacity:0.8;"/>
   </g>
   <g id="patch_51">
    <path clip-path="url(#p6b3a3bcaf5)" d="M 131.716453 169.246875 
L 133.005638 169.246875 
L 133.005638 168.206019 
L 131.716453 168.206019 
z
" style="fill:#1f77b4;opacity:0.8;"/>
   </g>
   <g id="patch_52">
    <path clip-path="url(#p6b3a3bcaf5)" d="M 133.005638 169.246875 
L 134.294823 169.246875 
L 134.294823 168.77935 
L 133.005638 168.77935 
z
" style="fill:#1f77b4;opacity:0.8;"/>
   </g>
   <g id="patch_53">
    <path clip-path="url(#p6b3a3bcaf5)" d="M 134.294823 169.246875 
L 135.584008 169.246875 
L 135.584008 169.246875 
L 134.294823 169.246875 
z
" style="fill:#1f77b4;opacity:0.8;"/>
   </g>
   <g id="patch_54">
    <path clip-path="url(#p6b3a3bcaf5)" d="M 135.584008 169.246875 
L 136.873193 169.246875 
L 136.873193 168.639136 
L 135.584008 168.639136 
z
" style="fill:#1f77b4;opacity:0.8;"/>
   </g>
   <g id="patch_55">
    <path clip-path="url(#p6b3a3bcaf5)" d="M 136.873193 169.246875 
L 138.162378 169.246875 
L 138.162378 169.246875 
L 136.873193 169.246875 
z
" style="fill:#1f77b4;opacity:0.8;"/>
   </g>
   <g id="patch_56">
    <path clip-path="url(#p6b3a3bcaf5)" d="M 138.162378 169.246875 
L 139.451563 169.246875 
L 139.451563 168.937629 
L 138.162378 168.937629 
z
" style="fill:#1f77b4;opacity:0.8;"/>
   </g>
   <g id="patch_57">
    <path clip-path="url(#p6b3a3bcaf5)" d="M 139.451563 169.246875 
L 140.740748 169.246875 
L 140.740748 169.246875 
L 139.451563 169.246875 
z
" style="fill:#1f77b4;opacity:0.8;"/>
   </g>
   <g id="patch_58">
    <path clip-path="url(#p6b3a3bcaf5)" d="M 140.740748 169.246875 
L 142.029933 169.246875 
L 142.029933 169.189241 
L 140.740748 169.189241 
z
" style="fill:#1f77b4;opacity:0.8;"/>
   </g>
   <g id="patch_59">
    <path clip-path="url(#p6b3a3bcaf5)" d="M 142.029933 169.246875 
L 143.319118 169.246875 
L 143.319118 169.027091 
L 142.029933 169.027091 
z
" style="fill:#1f77b4;opacity:0.8;"/>
   </g>
   <g id="patch_60">
    <path clip-path="url(#p6b3a3bcaf5)" d="M 143.319118 169.246875 
L 144.608303 169.246875 
L 144.608303 169.083005 
L 143.319118 169.083005 
z
" style="fill:#1f77b4;opacity:0.8;"/>
   </g>
   <g id="patch_61">
    <path clip-path="url(#p6b3a3bcaf5)" d="M 144.608303 169.246875 
L 145.897488 169.246875 
L 145.897488 169.074403 
L 144.608303 169.074403 
z
" style="fill:#1f77b4;opacity:0.8;"/>
   </g>
   <g id="patch_62">
    <path clip-path="url(#p6b3a3bcaf5)" d="M 145.897488 169.246875 
L 147.186673 169.246875 
L 147.186673 169.155693 
L 145.897488 169.155693 
z
" style="fill:#1f77b4;opacity:0.8;"/>
   </g>
   <g id="patch_63">
    <path clip-path="url(#p6b3a3bcaf5)" d="M 147.186673 169.246875 
L 148.475858 169.246875 
L 148.475858 169.190101 
L 147.186673 169.190101 
z
" style="fill:#1f77b4;opacity:0.8;"/>
   </g>
   <g id="patch_64">
    <path clip-path="url(#p6b3a3bcaf5)" d="M 148.475858 169.246875 
L 149.765043 169.246875 
L 149.765043 169.110101 
L 148.475858 169.110101 
z
" style="fill:#1f77b4;opacity:0.8;"/>
   </g>
   <g id="patch_65">
    <path clip-path="url(#p6b3a3bcaf5)" d="M 149.765043 169.246875 
L 151.054228 169.246875 
L 151.054228 169.246875 
L 149.765043 169.246875 
z
" style="fill:#1f77b4;opacity:0.8;"/>
   </g>
   <g id="patch_66">
    <path clip-path="url(#p6b3a3bcaf5)" d="M 151.054228 169.246875 
L 152.343413 169.246875 
L 152.343413 169.217628 
L 151.054228 169.217628 
z
" style="fill:#1f77b4;opacity:0.8;"/>
   </g>
   <g id="patch_67">
    <path clip-path="url(#p6b3a3bcaf5)" d="M 152.343413 169.246875 
L 153.632598 169.246875 
L 153.632598 169.057629 
L 152.343413 169.057629 
z
" style="fill:#1f77b4;opacity:0.8;"/>
   </g>
   <g id="patch_68">
    <path clip-path="url(#p6b3a3bcaf5)" d="M 153.632598 169.246875 
L 154.921783 169.246875 
L 154.921783 169.22623 
L 153.632598 169.22623 
z
" style="fill:#1f77b4;opacity:0.8;"/>
   </g>
   <g id="patch_69">
    <path clip-path="url(#p6b3a3bcaf5)" d="M 154.921783 169.246875 
L 156.210968 169.246875 
L 156.210968 169.221069 
L 154.921783 169.221069 
z
" style="fill:#1f77b4;opacity:0.8;"/>
   </g>
   <g id="patch_70">
    <path clip-path="url(#p6b3a3bcaf5)" d="M 156.210968 169.246875 
L 157.500154 169.246875 
L 157.500154 169.198273 
L 156.210968 169.198273 
z
" style="fill:#1f77b4;opacity:0.8;"/>
   </g>
   <g id="patch_71">
    <path clip-path="url(#p6b3a3bcaf5)" d="M 157.500154 169.246875 
L 158.789339 169.246875 
L 158.789339 169.216768 
L 157.500154 169.216768 
z
" style="fill:#1f77b4;opacity:0.8;"/>
   </g>
   <g id="patch_72">
    <path clip-path="url(#p6b3a3bcaf5)" d="M 158.789339 169.246875 
L 160.078524 169.246875 
L 160.078524 169.246875 
L 158.789339 169.246875 
z
" style="fill:#1f77b4;opacity:0.8;"/>
   </g>
   <g id="patch_73">
    <path clip-path="url(#p6b3a3bcaf5)" d="M 160.078524 169.246875 
L 161.367709 169.246875 
L 161.367709 169.243004 
L 160.078524 169.243004 
z
" style="fill:#1f77b4;opacity:0.8;"/>
   </g>
   <g id="patch_74">
    <path clip-path="url(#p6b3a3bcaf5)" d="M 161.367709 169.246875 
L 162.656894 169.246875 
L 162.656894 169.171607 
L 161.367709 169.171607 
z
" style="fill:#1f77b4;opacity:0.8;"/>
   </g>
   <g id="patch_75">
    <path clip-path="url(#p6b3a3bcaf5)" d="M 162.656894 169.246875 
L 163.946079 169.246875 
L 163.946079 169.233972 
L 162.656894 169.233972 
z
" style="fill:#1f77b4;opacity:0.8;"/>
   </g>
   <g id="patch_76">
    <path clip-path="url(#p6b3a3bcaf5)" d="M 163.946079 169.246875 
L 165.235264 169.246875 
L 165.235264 169.238273 
L 163.946079 169.238273 
z
" style="fill:#1f77b4;opacity:0.8;"/>
   </g>
   <g id="patch_77">
    <path clip-path="url(#p6b3a3bcaf5)" d="M 165.235264 169.246875 
L 166.524449 169.246875 
L 166.524449 169.224079 
L 165.235264 169.224079 
z
" style="fill:#1f77b4;opacity:0.8;"/>
   </g>
   <g id="patch_78">
    <path clip-path="url(#p6b3a3bcaf5)" d="M 166.524449 169.246875 
L 167.813634 169.246875 
L 167.813634 169.211176 
L 166.524449 169.211176 
z
" style="fill:#1f77b4;opacity:0.8;"/>
   </g>
   <g id="patch_79">
    <path clip-path="url(#p6b3a3bcaf5)" d="M 167.813634 169.246875 
L 169.102819 169.246875 
L 169.102819 169.236552 
L 167.813634 169.236552 
z
" style="fill:#1f77b4;opacity:0.8;"/>
   </g>
   <g id="patch_80">
    <path clip-path="url(#p6b3a3bcaf5)" d="M 169.102819 169.246875 
L 170.392004 169.246875 
L 170.392004 169.245585 
L 169.102819 169.245585 
z
" style="fill:#1f77b4;opacity:0.8;"/>
   </g>
   <g id="patch_81">
    <path clip-path="url(#p6b3a3bcaf5)" d="M 170.392004 169.246875 
L 171.681189 169.246875 
L 171.681189 169.244294 
L 170.392004 169.244294 
z
" style="fill:#1f77b4;opacity:0.8;"/>
   </g>
   <g id="patch_82">
    <path clip-path="url(#p6b3a3bcaf5)" d="M 171.681189 169.246875 
L 172.970374 169.246875 
L 172.970374 169.239563 
L 171.681189 169.239563 
z
" style="fill:#1f77b4;opacity:0.8;"/>
   </g>
   <g id="patch_83">
    <path clip-path="url(#p6b3a3bcaf5)" d="M 172.970374 169.246875 
L 174.259559 169.246875 
L 174.259559 169.22623 
L 172.970374 169.22623 
z
" style="fill:#1f77b4;opacity:0.8;"/>
   </g>
   <g id="patch_84">
    <path clip-path="url(#p6b3a3bcaf5)" d="M 174.259559 169.246875 
L 175.548744 169.246875 
L 175.548744 169.241714 
L 174.259559 169.241714 
z
" style="fill:#1f77b4;opacity:0.8;"/>
   </g>
   <g id="patch_85">
    <path clip-path="url(#p6b3a3bcaf5)" d="M 175.548744 169.246875 
L 176.837929 169.246875 
L 176.837929 169.246875 
L 175.548744 169.246875 
z
" style="fill:#1f77b4;opacity:0.8;"/>
   </g>
   <g id="patch_86">
    <path clip-path="url(#p6b3a3bcaf5)" d="M 176.837929 169.246875 
L 178.127114 169.246875 
L 178.127114 169.242144 
L 176.837929 169.242144 
z
" style="fill:#1f77b4;opacity:0.8;"/>
   </g>
   <g id="patch_87">
    <path clip-path="url(#p6b3a3bcaf5)" d="M 178.127114 169.246875 
L 179.416299 169.246875 
L 179.416299 169.244294 
L 178.127114 169.244294 
z
" style="fill:#1f77b4;opacity:0.8;"/>
   </g>
   <g id="patch_88">
    <path clip-path="url(#p6b3a3bcaf5)" d="M 179.416299 169.246875 
L 180.705484 169.246875 
L 180.705484 169.240854 
L 179.416299 169.240854 
z
" style="fill:#1f77b4;opacity:0.8;"/>
   </g>
   <g id="patch_89">
    <path clip-path="url(#p6b3a3bcaf5)" d="M 180.705484 169.246875 
L 181.994669 169.246875 
L 181.994669 169.245585 
L 180.705484 169.245585 
z
" style="fill:#1f77b4;opacity:0.8;"/>
   </g>
   <g id="patch_90">
    <path clip-path="url(#p6b3a3bcaf5)" d="M 181.994669 169.246875 
L 183.283854 169.246875 
L 183.283854 169.243004 
L 181.994669 169.243004 
z
" style="fill:#1f77b4;opacity:0.8;"/>
   </g>
   <g id="patch_91">
    <path clip-path="url(#p6b3a3bcaf5)" d="M 183.283854 169.246875 
L 184.573039 169.246875 
L 184.573039 169.246875 
L 183.283854 169.246875 
z
" style="fill:#1f77b4;opacity:0.8;"/>
   </g>
   <g id="patch_92">
    <path clip-path="url(#p6b3a3bcaf5)" d="M 184.573039 169.246875 
L 185.862224 169.246875 
L 185.862224 169.246875 
L 184.573039 169.246875 
z
" style="fill:#1f77b4;opacity:0.8;"/>
   </g>
   <g id="patch_93">
    <path clip-path="url(#p6b3a3bcaf5)" d="M 185.862224 169.246875 
L 187.151409 169.246875 
L 187.151409 169.234402 
L 185.862224 169.234402 
z
" style="fill:#1f77b4;opacity:0.8;"/>
   </g>
   <g id="patch_94">
    <path clip-path="url(#p6b3a3bcaf5)" d="M 187.151409 169.246875 
L 188.440594 169.246875 
L 188.440594 169.246875 
L 187.151409 169.246875 
z
" style="fill:#1f77b4;opacity:0.8;"/>
   </g>
   <g id="patch_95">
    <path clip-path="url(#p6b3a3bcaf5)" d="M 188.440594 169.246875 
L 189.72978 169.246875 
L 189.72978 169.246875 
L 188.440594 169.246875 
z
" style="fill:#1f77b4;opacity:0.8;"/>
   </g>
   <g id="patch_96">
    <path clip-path="url(#p6b3a3bcaf5)" d="M 189.72978 169.246875 
L 191.018965 169.246875 
L 191.018965 169.246875 
L 189.72978 169.246875 
z
" style="fill:#1f77b4;opacity:0.8;"/>
   </g>
   <g id="patch_97">
    <path clip-path="url(#p6b3a3bcaf5)" d="M 191.018965 169.246875 
L 192.30815 169.246875 
L 192.30815 169.246875 
L 191.018965 169.246875 
z
" style="fill:#1f77b4;opacity:0.8;"/>
   </g>
   <g id="patch_98">
    <path clip-path="url(#p6b3a3bcaf5)" d="M 192.30815 169.246875 
L 193.597335 169.246875 
L 193.597335 169.243004 
L 192.30815 169.243004 
z
" style="fill:#1f77b4;opacity:0.8;"/>
   </g>
   <g id="patch_99">
    <path clip-path="url(#p6b3a3bcaf5)" d="M 193.597335 169.246875 
L 194.88652 169.246875 
L 194.88652 169.243004 
L 193.597335 169.243004 
z
" style="fill:#1f77b4;opacity:0.8;"/>
   </g>
   <g id="patch_100">
    <path clip-path="url(#p6b3a3bcaf5)" d="M 194.88652 169.246875 
L 196.175705 169.246875 
L 196.175705 169.246875 
L 194.88652 169.246875 
z
" style="fill:#1f77b4;opacity:0.8;"/>
   </g>
   <g id="patch_101">
    <path clip-path="url(#p6b3a3bcaf5)" d="M 196.175705 169.246875 
L 197.46489 169.246875 
L 197.46489 169.246875 
L 196.175705 169.246875 
z
" style="fill:#1f77b4;opacity:0.8;"/>
   </g>
   <g id="patch_102">
    <path clip-path="url(#p6b3a3bcaf5)" d="M 197.46489 169.246875 
L 198.754075 169.246875 
L 198.754075 169.244294 
L 197.46489 169.244294 
z
" style="fill:#1f77b4;opacity:0.8;"/>
   </g>
   <g id="matplotlib.axis_1">
    <g id="xtick_1">
     <g id="line2d_1">
      <defs>
       <path d="M 0 0 
L 0 -8 
" id="m6b3ec0e144" style="stroke:#000000;stroke-width:0.8;"/>
      </defs>
      <g>
       <use style="stroke:#000000;stroke-width:0.8;" x="54.55" xlink:href="#m6b3ec0e144" y="169.246875"/>
      </g>
     </g>
     <g id="text_1">
      <!-- 0 -->
      <defs>
       <path d="M 31.78125 66.40625 
Q 24.171875 66.40625 20.328125 58.90625 
Q 16.5 51.421875 16.5 36.375 
Q 16.5 21.390625 20.328125 13.890625 
Q 24.171875 6.390625 31.78125 6.390625 
Q 39.453125 6.390625 43.28125 13.890625 
Q 47.125 21.390625 47.125 36.375 
Q 47.125 51.421875 43.28125 58.90625 
Q 39.453125 66.40625 31.78125 66.40625 
z
M 31.78125 74.21875 
Q 44.046875 74.21875 50.515625 64.515625 
Q 56.984375 54.828125 56.984375 36.375 
Q 56.984375 17.96875 50.515625 8.265625 
Q 44.046875 -1.421875 31.78125 -1.421875 
Q 19.53125 -1.421875 13.0625 8.265625 
Q 6.59375 17.96875 6.59375 36.375 
Q 6.59375 54.828125 13.0625 64.515625 
Q 19.53125 74.21875 31.78125 74.21875 
z
" id="DejaVuSans-48"/>
      </defs>
      <g transform="translate(50.09625 183.384688)scale(0.14 -0.14)">
       <use xlink:href="#DejaVuSans-48"/>
      </g>
     </g>
    </g>
    <g id="xtick_2">
     <g id="line2d_2">
      <g>
       <use style="stroke:#000000;stroke-width:0.8;" x="144.465122" xlink:href="#m6b3ec0e144" y="169.246875"/>
      </g>
     </g>
     <g id="text_2">
      <!-- 10 -->
      <defs>
       <path d="M 12.40625 8.296875 
L 28.515625 8.296875 
L 28.515625 63.921875 
L 10.984375 60.40625 
L 10.984375 69.390625 
L 28.421875 72.90625 
L 38.28125 72.90625 
L 38.28125 8.296875 
L 54.390625 8.296875 
L 54.390625 0 
L 12.40625 0 
z
" id="DejaVuSans-49"/>
      </defs>
      <g transform="translate(135.557622 183.384688)scale(0.14 -0.14)">
       <use xlink:href="#DejaVuSans-49"/>
       <use x="63.623047" xlink:href="#DejaVuSans-48"/>
      </g>
     </g>
    </g>
    <g id="xtick_3">
     <g id="line2d_3">
      <defs>
       <path d="M 0 0 
L 0 -5 
" id="m9fbbeab777" style="stroke:#000000;stroke-width:0.6;"/>
      </defs>
      <g>
       <use style="stroke:#000000;stroke-width:0.6;" x="72.533024" xlink:href="#m9fbbeab777" y="169.246875"/>
      </g>
     </g>
    </g>
    <g id="xtick_4">
     <g id="line2d_4">
      <g>
       <use style="stroke:#000000;stroke-width:0.6;" x="90.516049" xlink:href="#m9fbbeab777" y="169.246875"/>
      </g>
     </g>
    </g>
    <g id="xtick_5">
     <g id="line2d_5">
      <g>
       <use style="stroke:#000000;stroke-width:0.6;" x="108.499073" xlink:href="#m9fbbeab777" y="169.246875"/>
      </g>
     </g>
    </g>
    <g id="xtick_6">
     <g id="line2d_6">
      <g>
       <use style="stroke:#000000;stroke-width:0.6;" x="126.482098" xlink:href="#m9fbbeab777" y="169.246875"/>
      </g>
     </g>
    </g>
    <g id="xtick_7">
     <g id="line2d_7">
      <g>
       <use style="stroke:#000000;stroke-width:0.6;" x="162.448147" xlink:href="#m9fbbeab777" y="169.246875"/>
      </g>
     </g>
    </g>
    <g id="xtick_8">
     <g id="line2d_8">
      <g>
       <use style="stroke:#000000;stroke-width:0.6;" x="180.431171" xlink:href="#m9fbbeab777" y="169.246875"/>
      </g>
     </g>
    </g>
    <g id="xtick_9">
     <g id="line2d_9">
      <g>
       <use style="stroke:#000000;stroke-width:0.6;" x="198.414196" xlink:href="#m9fbbeab777" y="169.246875"/>
      </g>
     </g>
    </g>
    <g id="text_3">
     <!-- d (Å) -->
     <defs>
      <path d="M 45.40625 46.390625 
L 45.40625 75.984375 
L 54.390625 75.984375 
L 54.390625 0 
L 45.40625 0 
L 45.40625 8.203125 
Q 42.578125 3.328125 38.25 0.953125 
Q 33.9375 -1.421875 27.875 -1.421875 
Q 17.96875 -1.421875 11.734375 6.484375 
Q 5.515625 14.40625 5.515625 27.296875 
Q 5.515625 40.1875 11.734375 48.09375 
Q 17.96875 56 27.875 56 
Q 33.9375 56 38.25 53.625 
Q 42.578125 51.265625 45.40625 46.390625 
z
M 14.796875 27.296875 
Q 14.796875 17.390625 18.875 11.75 
Q 22.953125 6.109375 30.078125 6.109375 
Q 37.203125 6.109375 41.296875 11.75 
Q 45.40625 17.390625 45.40625 27.296875 
Q 45.40625 37.203125 41.296875 42.84375 
Q 37.203125 48.484375 30.078125 48.484375 
Q 22.953125 48.484375 18.875 42.84375 
Q 14.796875 37.203125 14.796875 27.296875 
z
" id="DejaVuSans-100"/>
      <path id="DejaVuSans-32"/>
      <path d="M 31 75.875 
Q 24.46875 64.65625 21.28125 53.65625 
Q 18.109375 42.671875 18.109375 31.390625 
Q 18.109375 20.125 21.3125 9.0625 
Q 24.515625 -2 31 -13.1875 
L 23.1875 -13.1875 
Q 15.875 -1.703125 12.234375 9.375 
Q 8.59375 20.453125 8.59375 31.390625 
Q 8.59375 42.28125 12.203125 53.3125 
Q 15.828125 64.359375 23.1875 75.875 
z
" id="DejaVuSans-40"/>
      <path d="M 41.609375 79.390625 
Q 41.609375 82.46875 39.421875 84.640625 
Q 37.25 86.8125 34.1875 86.8125 
Q 31.0625 86.8125 28.9375 84.6875 
Q 26.8125 82.5625 26.8125 79.390625 
Q 26.8125 76.3125 28.953125 74.15625 
Q 31.109375 72.015625 34.1875 72.015625 
Q 37.25 72.015625 39.421875 74.15625 
Q 41.609375 76.3125 41.609375 79.390625 
z
M 34.1875 63.1875 
L 20.90625 26.90625 
L 47.515625 26.90625 
z
M 26.8125 68.21875 
Q 23.828125 70.21875 22.3125 73.015625 
Q 20.796875 75.828125 20.796875 79.390625 
Q 20.796875 85.015625 24.671875 88.921875 
Q 28.5625 92.828125 34.1875 92.828125 
Q 39.75 92.828125 43.671875 88.890625 
Q 47.609375 84.96875 47.609375 79.390625 
Q 47.609375 75.984375 46.0625 73.09375 
Q 44.53125 70.21875 41.609375 68.21875 
L 67.578125 0 
L 57.328125 0 
L 50.6875 18.703125 
L 17.828125 18.703125 
L 11.1875 0 
L 0.78125 0 
z
" id="DejaVuSans-197"/>
      <path d="M 8.015625 75.875 
L 15.828125 75.875 
Q 23.140625 64.359375 26.78125 53.3125 
Q 30.421875 42.28125 30.421875 31.390625 
Q 30.421875 20.453125 26.78125 9.375 
Q 23.140625 -1.703125 15.828125 -13.1875 
L 8.015625 -13.1875 
Q 14.5 -2 17.703125 9.0625 
Q 20.90625 20.125 20.90625 31.390625 
Q 20.90625 42.671875 17.703125 53.65625 
Q 14.5 64.65625 8.015625 75.875 
z
" id="DejaVuSans-41"/>
     </defs>
     <g transform="translate(112.955781 202.226875)scale(0.14 -0.14)">
      <use xlink:href="#DejaVuSans-100"/>
      <use x="63.476562" xlink:href="#DejaVuSans-32"/>
      <use x="95.263672" xlink:href="#DejaVuSans-40"/>
      <use x="134.277344" xlink:href="#DejaVuSans-197"/>
      <use x="202.685547" xlink:href="#DejaVuSans-41"/>
     </g>
    </g>
   </g>
   <g id="matplotlib.axis_2">
    <g id="ytick_1">
     <g id="line2d_10">
      <defs>
       <path d="M 0 0 
L 8 0 
" id="m64fe07207e" style="stroke:#000000;stroke-width:0.8;"/>
      </defs>
      <g>
       <use style="stroke:#000000;stroke-width:0.8;" x="54.55" xlink:href="#m64fe07207e" y="169.246875"/>
      </g>
     </g>
     <g id="text_4">
      <!-- 0.0 -->
      <defs>
       <path d="M 10.6875 12.40625 
L 21 12.40625 
L 21 0 
L 10.6875 0 
z
" id="DejaVuSans-46"/>
      </defs>
      <g transform="translate(28.785625 174.565781)scale(0.14 -0.14)">
       <use xlink:href="#DejaVuSans-48"/>
       <use x="63.623047" xlink:href="#DejaVuSans-46"/>
       <use x="95.410156" xlink:href="#DejaVuSans-48"/>
      </g>
     </g>
    </g>
    <g id="ytick_2">
     <g id="line2d_11">
      <g>
       <use style="stroke:#000000;stroke-width:0.8;" x="54.55" xlink:href="#m64fe07207e" y="115.483672"/>
      </g>
     </g>
     <g id="text_5">
      <!-- 0.1 -->
      <g transform="translate(28.785625 120.802579)scale(0.14 -0.14)">
       <use xlink:href="#DejaVuSans-48"/>
       <use x="63.623047" xlink:href="#DejaVuSans-46"/>
       <use x="95.410156" xlink:href="#DejaVuSans-49"/>
      </g>
     </g>
    </g>
    <g id="ytick_3">
     <g id="line2d_12">
      <g>
       <use style="stroke:#000000;stroke-width:0.8;" x="54.55" xlink:href="#m64fe07207e" y="61.72047"/>
      </g>
     </g>
     <g id="text_6">
      <!-- 0.2 -->
      <defs>
       <path d="M 19.1875 8.296875 
L 53.609375 8.296875 
L 53.609375 0 
L 7.328125 0 
L 7.328125 8.296875 
Q 12.9375 14.109375 22.625 23.890625 
Q 32.328125 33.6875 34.8125 36.53125 
Q 39.546875 41.84375 41.421875 45.53125 
Q 43.3125 49.21875 43.3125 52.78125 
Q 43.3125 58.59375 39.234375 62.25 
Q 35.15625 65.921875 28.609375 65.921875 
Q 23.96875 65.921875 18.8125 64.3125 
Q 13.671875 62.703125 7.8125 59.421875 
L 7.8125 69.390625 
Q 13.765625 71.78125 18.9375 73 
Q 24.125 74.21875 28.421875 74.21875 
Q 39.75 74.21875 46.484375 68.546875 
Q 53.21875 62.890625 53.21875 53.421875 
Q 53.21875 48.921875 51.53125 44.890625 
Q 49.859375 40.875 45.40625 35.40625 
Q 44.1875 33.984375 37.640625 27.21875 
Q 31.109375 20.453125 19.1875 8.296875 
z
" id="DejaVuSans-50"/>
      </defs>
      <g transform="translate(28.785625 67.039376)scale(0.14 -0.14)">
       <use xlink:href="#DejaVuSans-48"/>
       <use x="63.623047" xlink:href="#DejaVuSans-46"/>
       <use x="95.410156" xlink:href="#DejaVuSans-50"/>
      </g>
     </g>
    </g>
    <g id="ytick_4">
     <g id="line2d_13">
      <defs>
       <path d="M 0 0 
L 5 0 
" id="mfc3eb860d1" style="stroke:#000000;stroke-width:0.6;"/>
      </defs>
      <g>
       <use style="stroke:#000000;stroke-width:0.6;" x="54.55" xlink:href="#mfc3eb860d1" y="158.494234"/>
      </g>
     </g>
    </g>
    <g id="ytick_5">
     <g id="line2d_14">
      <g>
       <use style="stroke:#000000;stroke-width:0.6;" x="54.55" xlink:href="#mfc3eb860d1" y="147.741594"/>
      </g>
     </g>
    </g>
    <g id="ytick_6">
     <g id="line2d_15">
      <g>
       <use style="stroke:#000000;stroke-width:0.6;" x="54.55" xlink:href="#mfc3eb860d1" y="136.988953"/>
      </g>
     </g>
    </g>
    <g id="ytick_7">
     <g id="line2d_16">
      <g>
       <use style="stroke:#000000;stroke-width:0.6;" x="54.55" xlink:href="#mfc3eb860d1" y="126.236313"/>
      </g>
     </g>
    </g>
    <g id="ytick_8">
     <g id="line2d_17">
      <g>
       <use style="stroke:#000000;stroke-width:0.6;" x="54.55" xlink:href="#mfc3eb860d1" y="104.731032"/>
      </g>
     </g>
    </g>
    <g id="ytick_9">
     <g id="line2d_18">
      <g>
       <use style="stroke:#000000;stroke-width:0.6;" x="54.55" xlink:href="#mfc3eb860d1" y="93.978391"/>
      </g>
     </g>
    </g>
    <g id="ytick_10">
     <g id="line2d_19">
      <g>
       <use style="stroke:#000000;stroke-width:0.6;" x="54.55" xlink:href="#mfc3eb860d1" y="83.225751"/>
      </g>
     </g>
    </g>
    <g id="ytick_11">
     <g id="line2d_20">
      <g>
       <use style="stroke:#000000;stroke-width:0.6;" x="54.55" xlink:href="#mfc3eb860d1" y="72.47311"/>
      </g>
     </g>
    </g>
    <g id="ytick_12">
     <g id="line2d_21">
      <g>
       <use style="stroke:#000000;stroke-width:0.6;" x="54.55" xlink:href="#mfc3eb860d1" y="50.967829"/>
      </g>
     </g>
    </g>
    <g id="ytick_13">
     <g id="line2d_22">
      <g>
       <use style="stroke:#000000;stroke-width:0.6;" x="54.55" xlink:href="#mfc3eb860d1" y="40.215188"/>
      </g>
     </g>
    </g>
    <g id="ytick_14">
     <g id="line2d_23">
      <g>
       <use style="stroke:#000000;stroke-width:0.6;" x="54.55" xlink:href="#mfc3eb860d1" y="29.462548"/>
      </g>
     </g>
    </g>
    <g id="ytick_15">
     <g id="line2d_24">
      <g>
       <use style="stroke:#000000;stroke-width:0.6;" x="54.55" xlink:href="#mfc3eb860d1" y="18.709907"/>
      </g>
     </g>
    </g>
    <g id="text_7">
     <!-- Histogram displacement -->
     <defs>
      <path d="M 9.8125 72.90625 
L 19.671875 72.90625 
L 19.671875 43.015625 
L 55.515625 43.015625 
L 55.515625 72.90625 
L 65.375 72.90625 
L 65.375 0 
L 55.515625 0 
L 55.515625 34.71875 
L 19.671875 34.71875 
L 19.671875 0 
L 9.8125 0 
z
" id="DejaVuSans-72"/>
      <path d="M 9.421875 54.6875 
L 18.40625 54.6875 
L 18.40625 0 
L 9.421875 0 
z
M 9.421875 75.984375 
L 18.40625 75.984375 
L 18.40625 64.59375 
L 9.421875 64.59375 
z
" id="DejaVuSans-105"/>
      <path d="M 44.28125 53.078125 
L 44.28125 44.578125 
Q 40.484375 46.53125 36.375 47.5 
Q 32.28125 48.484375 27.875 48.484375 
Q 21.1875 48.484375 17.84375 46.4375 
Q 14.5 44.390625 14.5 40.28125 
Q 14.5 37.15625 16.890625 35.375 
Q 19.28125 33.59375 26.515625 31.984375 
L 29.59375 31.296875 
Q 39.15625 29.25 43.1875 25.515625 
Q 47.21875 21.78125 47.21875 15.09375 
Q 47.21875 7.46875 41.1875 3.015625 
Q 35.15625 -1.421875 24.609375 -1.421875 
Q 20.21875 -1.421875 15.453125 -0.5625 
Q 10.6875 0.296875 5.421875 2 
L 5.421875 11.28125 
Q 10.40625 8.6875 15.234375 7.390625 
Q 20.0625 6.109375 24.8125 6.109375 
Q 31.15625 6.109375 34.5625 8.28125 
Q 37.984375 10.453125 37.984375 14.40625 
Q 37.984375 18.0625 35.515625 20.015625 
Q 33.0625 21.96875 24.703125 23.78125 
L 21.578125 24.515625 
Q 13.234375 26.265625 9.515625 29.90625 
Q 5.8125 33.546875 5.8125 39.890625 
Q 5.8125 47.609375 11.28125 51.796875 
Q 16.75 56 26.8125 56 
Q 31.78125 56 36.171875 55.265625 
Q 40.578125 54.546875 44.28125 53.078125 
z
" id="DejaVuSans-115"/>
      <path d="M 18.3125 70.21875 
L 18.3125 54.6875 
L 36.8125 54.6875 
L 36.8125 47.703125 
L 18.3125 47.703125 
L 18.3125 18.015625 
Q 18.3125 11.328125 20.140625 9.421875 
Q 21.96875 7.515625 27.59375 7.515625 
L 36.8125 7.515625 
L 36.8125 0 
L 27.59375 0 
Q 17.1875 0 13.234375 3.875 
Q 9.28125 7.765625 9.28125 18.015625 
L 9.28125 47.703125 
L 2.6875 47.703125 
L 2.6875 54.6875 
L 9.28125 54.6875 
L 9.28125 70.21875 
z
" id="DejaVuSans-116"/>
      <path d="M 30.609375 48.390625 
Q 23.390625 48.390625 19.1875 42.75 
Q 14.984375 37.109375 14.984375 27.296875 
Q 14.984375 17.484375 19.15625 11.84375 
Q 23.34375 6.203125 30.609375 6.203125 
Q 37.796875 6.203125 41.984375 11.859375 
Q 46.1875 17.53125 46.1875 27.296875 
Q 46.1875 37.015625 41.984375 42.703125 
Q 37.796875 48.390625 30.609375 48.390625 
z
M 30.609375 56 
Q 42.328125 56 49.015625 48.375 
Q 55.71875 40.765625 55.71875 27.296875 
Q 55.71875 13.875 49.015625 6.21875 
Q 42.328125 -1.421875 30.609375 -1.421875 
Q 18.84375 -1.421875 12.171875 6.21875 
Q 5.515625 13.875 5.515625 27.296875 
Q 5.515625 40.765625 12.171875 48.375 
Q 18.84375 56 30.609375 56 
z
" id="DejaVuSans-111"/>
      <path d="M 45.40625 27.984375 
Q 45.40625 37.75 41.375 43.109375 
Q 37.359375 48.484375 30.078125 48.484375 
Q 22.859375 48.484375 18.828125 43.109375 
Q 14.796875 37.75 14.796875 27.984375 
Q 14.796875 18.265625 18.828125 12.890625 
Q 22.859375 7.515625 30.078125 7.515625 
Q 37.359375 7.515625 41.375 12.890625 
Q 45.40625 18.265625 45.40625 27.984375 
z
M 54.390625 6.78125 
Q 54.390625 -7.171875 48.1875 -13.984375 
Q 42 -20.796875 29.203125 -20.796875 
Q 24.46875 -20.796875 20.265625 -20.09375 
Q 16.0625 -19.390625 12.109375 -17.921875 
L 12.109375 -9.1875 
Q 16.0625 -11.328125 19.921875 -12.34375 
Q 23.78125 -13.375 27.78125 -13.375 
Q 36.625 -13.375 41.015625 -8.765625 
Q 45.40625 -4.15625 45.40625 5.171875 
L 45.40625 9.625 
Q 42.625 4.78125 38.28125 2.390625 
Q 33.9375 0 27.875 0 
Q 17.828125 0 11.671875 7.65625 
Q 5.515625 15.328125 5.515625 27.984375 
Q 5.515625 40.671875 11.671875 48.328125 
Q 17.828125 56 27.875 56 
Q 33.9375 56 38.28125 53.609375 
Q 42.625 51.21875 45.40625 46.390625 
L 45.40625 54.6875 
L 54.390625 54.6875 
z
" id="DejaVuSans-103"/>
      <path d="M 41.109375 46.296875 
Q 39.59375 47.171875 37.8125 47.578125 
Q 36.03125 48 33.890625 48 
Q 26.265625 48 22.1875 43.046875 
Q 18.109375 38.09375 18.109375 28.8125 
L 18.109375 0 
L 9.078125 0 
L 9.078125 54.6875 
L 18.109375 54.6875 
L 18.109375 46.1875 
Q 20.953125 51.171875 25.484375 53.578125 
Q 30.03125 56 36.53125 56 
Q 37.453125 56 38.578125 55.875 
Q 39.703125 55.765625 41.0625 55.515625 
z
" id="DejaVuSans-114"/>
      <path d="M 34.28125 27.484375 
Q 23.390625 27.484375 19.1875 25 
Q 14.984375 22.515625 14.984375 16.5 
Q 14.984375 11.71875 18.140625 8.90625 
Q 21.296875 6.109375 26.703125 6.109375 
Q 34.1875 6.109375 38.703125 11.40625 
Q 43.21875 16.703125 43.21875 25.484375 
L 43.21875 27.484375 
z
M 52.203125 31.203125 
L 52.203125 0 
L 43.21875 0 
L 43.21875 8.296875 
Q 40.140625 3.328125 35.546875 0.953125 
Q 30.953125 -1.421875 24.3125 -1.421875 
Q 15.921875 -1.421875 10.953125 3.296875 
Q 6 8.015625 6 15.921875 
Q 6 25.140625 12.171875 29.828125 
Q 18.359375 34.515625 30.609375 34.515625 
L 43.21875 34.515625 
L 43.21875 35.40625 
Q 43.21875 41.609375 39.140625 45 
Q 35.0625 48.390625 27.6875 48.390625 
Q 23 48.390625 18.546875 47.265625 
Q 14.109375 46.140625 10.015625 43.890625 
L 10.015625 52.203125 
Q 14.9375 54.109375 19.578125 55.046875 
Q 24.21875 56 28.609375 56 
Q 40.484375 56 46.34375 49.84375 
Q 52.203125 43.703125 52.203125 31.203125 
z
" id="DejaVuSans-97"/>
      <path d="M 52 44.1875 
Q 55.375 50.25 60.0625 53.125 
Q 64.75 56 71.09375 56 
Q 79.640625 56 84.28125 50.015625 
Q 88.921875 44.046875 88.921875 33.015625 
L 88.921875 0 
L 79.890625 0 
L 79.890625 32.71875 
Q 79.890625 40.578125 77.09375 44.375 
Q 74.3125 48.1875 68.609375 48.1875 
Q 61.625 48.1875 57.5625 43.546875 
Q 53.515625 38.921875 53.515625 30.90625 
L 53.515625 0 
L 44.484375 0 
L 44.484375 32.71875 
Q 44.484375 40.625 41.703125 44.40625 
Q 38.921875 48.1875 33.109375 48.1875 
Q 26.21875 48.1875 22.15625 43.53125 
Q 18.109375 38.875 18.109375 30.90625 
L 18.109375 0 
L 9.078125 0 
L 9.078125 54.6875 
L 18.109375 54.6875 
L 18.109375 46.1875 
Q 21.1875 51.21875 25.484375 53.609375 
Q 29.78125 56 35.6875 56 
Q 41.65625 56 45.828125 52.96875 
Q 50 49.953125 52 44.1875 
z
" id="DejaVuSans-109"/>
      <path d="M 18.109375 8.203125 
L 18.109375 -20.796875 
L 9.078125 -20.796875 
L 9.078125 54.6875 
L 18.109375 54.6875 
L 18.109375 46.390625 
Q 20.953125 51.265625 25.265625 53.625 
Q 29.59375 56 35.59375 56 
Q 45.5625 56 51.78125 48.09375 
Q 58.015625 40.1875 58.015625 27.296875 
Q 58.015625 14.40625 51.78125 6.484375 
Q 45.5625 -1.421875 35.59375 -1.421875 
Q 29.59375 -1.421875 25.265625 0.953125 
Q 20.953125 3.328125 18.109375 8.203125 
z
M 48.6875 27.296875 
Q 48.6875 37.203125 44.609375 42.84375 
Q 40.53125 48.484375 33.40625 48.484375 
Q 26.265625 48.484375 22.1875 42.84375 
Q 18.109375 37.203125 18.109375 27.296875 
Q 18.109375 17.390625 22.1875 11.75 
Q 26.265625 6.109375 33.40625 6.109375 
Q 40.53125 6.109375 44.609375 11.75 
Q 48.6875 17.390625 48.6875 27.296875 
z
" id="DejaVuSans-112"/>
      <path d="M 9.421875 75.984375 
L 18.40625 75.984375 
L 18.40625 0 
L 9.421875 0 
z
" id="DejaVuSans-108"/>
      <path d="M 48.78125 52.59375 
L 48.78125 44.1875 
Q 44.96875 46.296875 41.140625 47.34375 
Q 37.3125 48.390625 33.40625 48.390625 
Q 24.65625 48.390625 19.8125 42.84375 
Q 14.984375 37.3125 14.984375 27.296875 
Q 14.984375 17.28125 19.8125 11.734375 
Q 24.65625 6.203125 33.40625 6.203125 
Q 37.3125 6.203125 41.140625 7.25 
Q 44.96875 8.296875 48.78125 10.40625 
L 48.78125 2.09375 
Q 45.015625 0.34375 40.984375 -0.53125 
Q 36.96875 -1.421875 32.421875 -1.421875 
Q 20.0625 -1.421875 12.78125 6.34375 
Q 5.515625 14.109375 5.515625 27.296875 
Q 5.515625 40.671875 12.859375 48.328125 
Q 20.21875 56 33.015625 56 
Q 37.15625 56 41.109375 55.140625 
Q 45.0625 54.296875 48.78125 52.59375 
z
" id="DejaVuSans-99"/>
      <path d="M 56.203125 29.59375 
L 56.203125 25.203125 
L 14.890625 25.203125 
Q 15.484375 15.921875 20.484375 11.0625 
Q 25.484375 6.203125 34.421875 6.203125 
Q 39.59375 6.203125 44.453125 7.46875 
Q 49.3125 8.734375 54.109375 11.28125 
L 54.109375 2.78125 
Q 49.265625 0.734375 44.1875 -0.34375 
Q 39.109375 -1.421875 33.890625 -1.421875 
Q 20.796875 -1.421875 13.15625 6.1875 
Q 5.515625 13.8125 5.515625 26.8125 
Q 5.515625 40.234375 12.765625 48.109375 
Q 20.015625 56 32.328125 56 
Q 43.359375 56 49.78125 48.890625 
Q 56.203125 41.796875 56.203125 29.59375 
z
M 47.21875 32.234375 
Q 47.125 39.59375 43.09375 43.984375 
Q 39.0625 48.390625 32.421875 48.390625 
Q 24.90625 48.390625 20.390625 44.140625 
Q 15.875 39.890625 15.1875 32.171875 
z
" id="DejaVuSans-101"/>
      <path d="M 54.890625 33.015625 
L 54.890625 0 
L 45.90625 0 
L 45.90625 32.71875 
Q 45.90625 40.484375 42.875 44.328125 
Q 39.84375 48.1875 33.796875 48.1875 
Q 26.515625 48.1875 22.3125 43.546875 
Q 18.109375 38.921875 18.109375 30.90625 
L 18.109375 0 
L 9.078125 0 
L 9.078125 54.6875 
L 18.109375 54.6875 
L 18.109375 46.1875 
Q 21.34375 51.125 25.703125 53.5625 
Q 30.078125 56 35.796875 56 
Q 45.21875 56 50.046875 50.171875 
Q 54.890625 44.34375 54.890625 33.015625 
z
" id="DejaVuSans-110"/>
     </defs>
     <g transform="translate(21.874062 177.125)rotate(-90)scale(0.14 -0.14)">
      <use xlink:href="#DejaVuSans-72"/>
      <use x="75.195312" xlink:href="#DejaVuSans-105"/>
      <use x="102.978516" xlink:href="#DejaVuSans-115"/>
      <use x="155.078125" xlink:href="#DejaVuSans-116"/>
      <use x="194.287109" xlink:href="#DejaVuSans-111"/>
      <use x="255.46875" xlink:href="#DejaVuSans-103"/>
      <use x="318.945312" xlink:href="#DejaVuSans-114"/>
      <use x="360.058594" xlink:href="#DejaVuSans-97"/>
      <use x="421.337891" xlink:href="#DejaVuSans-109"/>
      <use x="518.75" xlink:href="#DejaVuSans-32"/>
      <use x="550.537109" xlink:href="#DejaVuSans-100"/>
      <use x="614.013672" xlink:href="#DejaVuSans-105"/>
      <use x="641.796875" xlink:href="#DejaVuSans-115"/>
      <use x="693.896484" xlink:href="#DejaVuSans-112"/>
      <use x="757.373047" xlink:href="#DejaVuSans-108"/>
      <use x="785.15625" xlink:href="#DejaVuSans-97"/>
      <use x="846.435547" xlink:href="#DejaVuSans-99"/>
      <use x="901.416016" xlink:href="#DejaVuSans-101"/>
      <use x="962.939453" xlink:href="#DejaVuSans-109"/>
      <use x="1060.351562" xlink:href="#DejaVuSans-101"/>
      <use x="1121.875" xlink:href="#DejaVuSans-110"/>
      <use x="1185.253906" xlink:href="#DejaVuSans-116"/>
     </g>
    </g>
   </g>
   <g id="patch_103">
    <path d="M 54.55 169.246875 
L 54.55 13.5775 
" style="fill:none;stroke:#000000;stroke-linecap:square;stroke-linejoin:miter;stroke-width:0.8;"/>
   </g>
   <g id="patch_104">
    <path d="M 205.2 169.246875 
L 205.2 13.5775 
" style="fill:none;stroke:#000000;stroke-linecap:square;stroke-linejoin:miter;stroke-width:0.8;"/>
   </g>
   <g id="patch_105">
    <path d="M 54.55 169.246875 
L 205.2 169.246875 
" style="fill:none;stroke:#000000;stroke-linecap:square;stroke-linejoin:miter;stroke-width:0.8;"/>
   </g>
   <g id="patch_106">
    <path d="M 54.55 13.5775 
L 205.2 13.5775 
" style="fill:none;stroke:#000000;stroke-linecap:square;stroke-linejoin:miter;stroke-width:0.8;"/>
   </g>
  </g>
 </g>
 <defs>
  <clipPath id="p6b3a3bcaf5">
   <rect height="155.669375" width="150.65" x="54.55" y="13.5775"/>
  </clipPath>
 </defs>
</svg>
