<?xml version="1.0" encoding="utf-8" standalone="no"?>
<!DOCTYPE svg PUBLIC "-//W3C//DTD SVG 1.1//EN"
  "http://www.w3.org/Graphics/SVG/1.1/DTD/svg11.dtd">
<!-- Created with matplotlib (https://matplotlib.org/) -->
<svg height="216pt" version="1.1" viewBox="0 0 216 216" width="216pt" xmlns="http://www.w3.org/2000/svg" xmlns:xlink="http://www.w3.org/1999/xlink">
 <defs>
  <style type="text/css">
*{stroke-linecap:butt;stroke-linejoin:round;}
  </style>
 </defs>
 <g id="figure_1">
  <g id="patch_1">
   <path d="M 0 216 
L 216 216 
L 216 0 
L 0 0 
z
" style="fill:none;"/>
  </g>
  <g id="axes_1">
   <g id="patch_2">
    <path d="M 54.55 169.246875 
L 205.2 169.246875 
L 205.2 14.864123 
L 54.55 14.864123 
z
" style="fill:none;"/>
   </g>
   <g id="patch_3">
    <path clip-path="url(#p56eae4c08d)" d="M 66.90344 169.246875 
L 68.220551 169.246875 
L 68.220551 22.215683 
L 66.90344 22.215683 
z
" style="fill:#1f77b4;opacity:0.8;"/>
   </g>
   <g id="patch_4">
    <path clip-path="url(#p56eae4c08d)" d="M 68.220551 169.246875 
L 69.537661 169.246875 
L 69.537661 169.246875 
L 68.220551 169.246875 
z
" style="fill:#1f77b4;opacity:0.8;"/>
   </g>
   <g id="patch_5">
    <path clip-path="url(#p56eae4c08d)" d="M 69.537661 169.246875 
L 70.854771 169.246875 
L 70.854771 169.246875 
L 69.537661 169.246875 
z
" style="fill:#1f77b4;opacity:0.8;"/>
   </g>
   <g id="patch_6">
    <path clip-path="url(#p56eae4c08d)" d="M 70.854771 169.246875 
L 72.171881 169.246875 
L 72.171881 63.020019 
L 70.854771 63.020019 
z
" style="fill:#1f77b4;opacity:0.8;"/>
   </g>
   <g id="patch_7">
    <path clip-path="url(#p56eae4c08d)" d="M 72.171881 169.246875 
L 73.488991 169.246875 
L 73.488991 169.246875 
L 72.171881 169.246875 
z
" style="fill:#1f77b4;opacity:0.8;"/>
   </g>
   <g id="patch_8">
    <path clip-path="url(#p56eae4c08d)" d="M 73.488991 169.246875 
L 74.806101 169.246875 
L 74.806101 169.246875 
L 73.488991 169.246875 
z
" style="fill:#1f77b4;opacity:0.8;"/>
   </g>
   <g id="patch_9">
    <path clip-path="url(#p56eae4c08d)" d="M 74.806101 169.246875 
L 76.123211 169.246875 
L 76.123211 135.010626 
L 74.806101 135.010626 
z
" style="fill:#1f77b4;opacity:0.8;"/>
   </g>
   <g id="patch_10">
    <path clip-path="url(#p56eae4c08d)" d="M 76.123211 169.246875 
L 77.440321 169.246875 
L 77.440321 169.246875 
L 76.123211 169.246875 
z
" style="fill:#1f77b4;opacity:0.8;"/>
   </g>
   <g id="patch_11">
    <path clip-path="url(#p56eae4c08d)" d="M 77.440321 169.246875 
L 78.757431 169.246875 
L 78.757431 169.246875 
L 77.440321 169.246875 
z
" style="fill:#1f77b4;opacity:0.8;"/>
   </g>
   <g id="patch_12">
    <path clip-path="url(#p56eae4c08d)" d="M 78.757431 169.246875 
L 80.074541 169.246875 
L 80.074541 155.478503 
L 78.757431 155.478503 
z
" style="fill:#1f77b4;opacity:0.8;"/>
   </g>
   <g id="patch_13">
    <path clip-path="url(#p56eae4c08d)" d="M 80.074541 169.246875 
L 81.391651 169.246875 
L 81.391651 169.246875 
L 80.074541 169.246875 
z
" style="fill:#1f77b4;opacity:0.8;"/>
   </g>
   <g id="patch_14">
    <path clip-path="url(#p56eae4c08d)" d="M 81.391651 169.246875 
L 82.708762 169.246875 
L 82.708762 133.172394 
L 81.391651 133.172394 
z
" style="fill:#1f77b4;opacity:0.8;"/>
   </g>
   <g id="patch_15">
    <path clip-path="url(#p56eae4c08d)" d="M 82.708762 169.246875 
L 84.025872 169.246875 
L 84.025872 169.246875 
L 82.708762 169.246875 
z
" style="fill:#1f77b4;opacity:0.8;"/>
   </g>
   <g id="patch_16">
    <path clip-path="url(#p56eae4c08d)" d="M 84.025872 169.246875 
L 85.342982 169.246875 
L 85.342982 143.547955 
L 84.025872 143.547955 
z
" style="fill:#1f77b4;opacity:0.8;"/>
   </g>
   <g id="patch_17">
    <path clip-path="url(#p56eae4c08d)" d="M 85.342982 169.246875 
L 86.660092 169.246875 
L 86.660092 169.246875 
L 85.342982 169.246875 
z
" style="fill:#1f77b4;opacity:0.8;"/>
   </g>
   <g id="patch_18">
    <path clip-path="url(#p56eae4c08d)" d="M 86.660092 169.246875 
L 87.977202 169.246875 
L 87.977202 169.246875 
L 86.660092 169.246875 
z
" style="fill:#1f77b4;opacity:0.8;"/>
   </g>
   <g id="patch_19">
    <path clip-path="url(#p56eae4c08d)" d="M 87.977202 169.246875 
L 89.294312 169.246875 
L 89.294312 169.246875 
L 87.977202 169.246875 
z
" style="fill:#1f77b4;opacity:0.8;"/>
   </g>
   <g id="patch_20">
    <path clip-path="url(#p56eae4c08d)" d="M 89.294312 169.246875 
L 90.611422 169.246875 
L 90.611422 162.176376 
L 89.294312 162.176376 
z
" style="fill:#1f77b4;opacity:0.8;"/>
   </g>
   <g id="patch_21">
    <path clip-path="url(#p56eae4c08d)" d="M 90.611422 169.246875 
L 91.928532 169.246875 
L 91.928532 156.085397 
L 90.611422 156.085397 
z
" style="fill:#1f77b4;opacity:0.8;"/>
   </g>
   <g id="patch_22">
    <path clip-path="url(#p56eae4c08d)" d="M 91.928532 169.246875 
L 93.245642 169.246875 
L 93.245642 169.246875 
L 91.928532 169.246875 
z
" style="fill:#1f77b4;opacity:0.8;"/>
   </g>
   <g id="patch_23">
    <path clip-path="url(#p56eae4c08d)" d="M 93.245642 169.246875 
L 94.562752 169.246875 
L 94.562752 161.278891 
L 93.245642 161.278891 
z
" style="fill:#1f77b4;opacity:0.8;"/>
   </g>
   <g id="patch_24">
    <path clip-path="url(#p56eae4c08d)" d="M 94.562752 169.246875 
L 95.879862 169.246875 
L 95.879862 163.118756 
L 94.562752 163.118756 
z
" style="fill:#1f77b4;opacity:0.8;"/>
   </g>
   <g id="patch_25">
    <path clip-path="url(#p56eae4c08d)" d="M 95.879862 169.246875 
L 97.196973 169.246875 
L 97.196973 169.246875 
L 95.879862 169.246875 
z
" style="fill:#1f77b4;opacity:0.8;"/>
   </g>
   <g id="patch_26">
    <path clip-path="url(#p56eae4c08d)" d="M 97.196973 169.246875 
L 98.514083 169.246875 
L 98.514083 167.707397 
L 97.196973 167.707397 
z
" style="fill:#1f77b4;opacity:0.8;"/>
   </g>
   <g id="patch_27">
    <path clip-path="url(#p56eae4c08d)" d="M 98.514083 169.246875 
L 99.831193 169.246875 
L 99.831193 165.373691 
L 98.514083 165.373691 
z
" style="fill:#1f77b4;opacity:0.8;"/>
   </g>
   <g id="patch_28">
    <path clip-path="url(#p56eae4c08d)" d="M 99.831193 169.246875 
L 101.148303 169.246875 
L 101.148303 163.483627 
L 99.831193 163.483627 
z
" style="fill:#1f77b4;opacity:0.8;"/>
   </g>
   <g id="patch_29">
    <path clip-path="url(#p56eae4c08d)" d="M 101.148303 169.246875 
L 102.465413 169.246875 
L 102.465413 169.246875 
L 101.148303 169.246875 
z
" style="fill:#1f77b4;opacity:0.8;"/>
   </g>
   <g id="patch_30">
    <path clip-path="url(#p56eae4c08d)" d="M 102.465413 169.246875 
L 103.782523 169.246875 
L 103.782523 169.246875 
L 102.465413 169.246875 
z
" style="fill:#1f77b4;opacity:0.8;"/>
   </g>
   <g id="patch_31">
    <path clip-path="url(#p56eae4c08d)" d="M 103.782523 169.246875 
L 105.099633 169.246875 
L 105.099633 168.815478 
L 103.782523 168.815478 
z
" style="fill:#1f77b4;opacity:0.8;"/>
   </g>
   <g id="patch_32">
    <path clip-path="url(#p56eae4c08d)" d="M 105.099633 169.246875 
L 106.416743 169.246875 
L 106.416743 166.385453 
L 105.099633 166.385453 
z
" style="fill:#1f77b4;opacity:0.8;"/>
   </g>
   <g id="patch_33">
    <path clip-path="url(#p56eae4c08d)" d="M 106.416743 169.246875 
L 107.733853 169.246875 
L 107.733853 167.585773 
L 106.416743 167.585773 
z
" style="fill:#1f77b4;opacity:0.8;"/>
   </g>
   <g id="patch_34">
    <path clip-path="url(#p56eae4c08d)" d="M 107.733853 169.246875 
L 109.050963 169.246875 
L 109.050963 168.35592 
L 107.733853 168.35592 
z
" style="fill:#1f77b4;opacity:0.8;"/>
   </g>
   <g id="patch_35">
    <path clip-path="url(#p56eae4c08d)" d="M 109.050963 169.246875 
L 110.368073 169.246875 
L 110.368073 168.506113 
L 109.050963 168.506113 
z
" style="fill:#1f77b4;opacity:0.8;"/>
   </g>
   <g id="patch_36">
    <path clip-path="url(#p56eae4c08d)" d="M 110.368073 169.246875 
L 111.685184 169.246875 
L 111.685184 167.96248 
L 110.368073 167.96248 
z
" style="fill:#1f77b4;opacity:0.8;"/>
   </g>
   <g id="patch_37">
    <path clip-path="url(#p56eae4c08d)" d="M 111.685184 169.246875 
L 113.002294 169.246875 
L 113.002294 168.769767 
L 111.685184 168.769767 
z
" style="fill:#1f77b4;opacity:0.8;"/>
   </g>
   <g id="patch_38">
    <path clip-path="url(#p56eae4c08d)" d="M 113.002294 169.246875 
L 114.319404 169.246875 
L 114.319404 169.246875 
L 113.002294 169.246875 
z
" style="fill:#1f77b4;opacity:0.8;"/>
   </g>
   <g id="patch_39">
    <path clip-path="url(#p56eae4c08d)" d="M 114.319404 169.246875 
L 115.636514 169.246875 
L 115.636514 168.960366 
L 114.319404 168.960366 
z
" style="fill:#1f77b4;opacity:0.8;"/>
   </g>
   <g id="patch_40">
    <path clip-path="url(#p56eae4c08d)" d="M 115.636514 169.246875 
L 116.953624 169.246875 
L 116.953624 168.908941 
L 115.636514 168.908941 
z
" style="fill:#1f77b4;opacity:0.8;"/>
   </g>
   <g id="patch_41">
    <path clip-path="url(#p56eae4c08d)" d="M 116.953624 169.246875 
L 118.270734 169.246875 
L 118.270734 168.566517 
L 116.953624 168.566517 
z
" style="fill:#1f77b4;opacity:0.8;"/>
   </g>
   <g id="patch_42">
    <path clip-path="url(#p56eae4c08d)" d="M 118.270734 169.246875 
L 119.587844 169.246875 
L 119.587844 169.01179 
L 118.270734 169.01179 
z
" style="fill:#1f77b4;opacity:0.8;"/>
   </g>
   <g id="patch_43">
    <path clip-path="url(#p56eae4c08d)" d="M 119.587844 169.246875 
L 120.904954 169.246875 
L 120.904954 169.246875 
L 119.587844 169.246875 
z
" style="fill:#1f77b4;opacity:0.8;"/>
   </g>
   <g id="patch_44">
    <path clip-path="url(#p56eae4c08d)" d="M 120.904954 169.246875 
L 122.222064 169.246875 
L 122.222064 168.708547 
L 120.904954 168.708547 
z
" style="fill:#1f77b4;opacity:0.8;"/>
   </g>
   <g id="patch_45">
    <path clip-path="url(#p56eae4c08d)" d="M 122.222064 169.246875 
L 123.539174 169.246875 
L 123.539174 169.246875 
L 122.222064 169.246875 
z
" style="fill:#1f77b4;opacity:0.8;"/>
   </g>
   <g id="patch_46">
    <path clip-path="url(#p56eae4c08d)" d="M 123.539174 169.246875 
L 124.856284 169.246875 
L 124.856284 169.213816 
L 123.539174 169.213816 
z
" style="fill:#1f77b4;opacity:0.8;"/>
   </g>
   <g id="patch_47">
    <path clip-path="url(#p56eae4c08d)" d="M 124.856284 169.246875 
L 126.173395 169.246875 
L 126.173395 169.137087 
L 124.856284 169.137087 
z
" style="fill:#1f77b4;opacity:0.8;"/>
   </g>
   <g id="patch_48">
    <path clip-path="url(#p56eae4c08d)" d="M 126.173395 169.246875 
L 127.490505 169.246875 
L 127.490505 169.151372 
L 126.173395 169.151372 
z
" style="fill:#1f77b4;opacity:0.8;"/>
   </g>
   <g id="patch_49">
    <path clip-path="url(#p56eae4c08d)" d="M 127.490505 169.246875 
L 128.807615 169.246875 
L 128.807615 169.129333 
L 127.490505 169.129333 
z
" style="fill:#1f77b4;opacity:0.8;"/>
   </g>
   <g id="patch_50">
    <path clip-path="url(#p56eae4c08d)" d="M 128.807615 169.246875 
L 130.124725 169.246875 
L 130.124725 169.211367 
L 128.807615 169.211367 
z
" style="fill:#1f77b4;opacity:0.8;"/>
   </g>
   <g id="patch_51">
    <path clip-path="url(#p56eae4c08d)" d="M 130.124725 169.246875 
L 131.441835 169.246875 
L 131.441835 169.202797 
L 130.124725 169.202797 
z
" style="fill:#1f77b4;opacity:0.8;"/>
   </g>
   <g id="patch_52">
    <path clip-path="url(#p56eae4c08d)" d="M 131.441835 169.246875 
L 132.758945 169.246875 
L 132.758945 169.230958 
L 131.441835 169.230958 
z
" style="fill:#1f77b4;opacity:0.8;"/>
   </g>
   <g id="patch_53">
    <path clip-path="url(#p56eae4c08d)" d="M 132.758945 169.246875 
L 134.076055 169.246875 
L 134.076055 169.172187 
L 132.758945 169.172187 
z
" style="fill:#1f77b4;opacity:0.8;"/>
   </g>
   <g id="patch_54">
    <path clip-path="url(#p56eae4c08d)" d="M 134.076055 169.246875 
L 135.393165 169.246875 
L 135.393165 169.198307 
L 134.076055 169.198307 
z
" style="fill:#1f77b4;opacity:0.8;"/>
   </g>
   <g id="patch_55">
    <path clip-path="url(#p56eae4c08d)" d="M 135.393165 169.246875 
L 136.710275 169.246875 
L 136.710275 169.228509 
L 135.393165 169.228509 
z
" style="fill:#1f77b4;opacity:0.8;"/>
   </g>
   <g id="patch_56">
    <path clip-path="url(#p56eae4c08d)" d="M 136.710275 169.246875 
L 138.027385 169.246875 
L 138.027385 169.212592 
L 136.710275 169.212592 
z
" style="fill:#1f77b4;opacity:0.8;"/>
   </g>
   <g id="patch_57">
    <path clip-path="url(#p56eae4c08d)" d="M 138.027385 169.246875 
L 139.344495 169.246875 
L 139.344495 169.235855 
L 138.027385 169.235855 
z
" style="fill:#1f77b4;opacity:0.8;"/>
   </g>
   <g id="patch_58">
    <path clip-path="url(#p56eae4c08d)" d="M 139.344495 169.246875 
L 140.661606 169.246875 
L 140.661606 169.244426 
L 139.344495 169.244426 
z
" style="fill:#1f77b4;opacity:0.8;"/>
   </g>
   <g id="patch_59">
    <path clip-path="url(#p56eae4c08d)" d="M 140.661606 169.246875 
L 141.978716 169.246875 
L 141.978716 169.207694 
L 140.661606 169.207694 
z
" style="fill:#1f77b4;opacity:0.8;"/>
   </g>
   <g id="patch_60">
    <path clip-path="url(#p56eae4c08d)" d="M 141.978716 169.246875 
L 143.295826 169.246875 
L 143.295826 169.239529 
L 141.978716 169.239529 
z
" style="fill:#1f77b4;opacity:0.8;"/>
   </g>
   <g id="patch_61">
    <path clip-path="url(#p56eae4c08d)" d="M 143.295826 169.246875 
L 144.612936 169.246875 
L 144.612936 169.232182 
L 143.295826 169.232182 
z
" style="fill:#1f77b4;opacity:0.8;"/>
   </g>
   <g id="patch_62">
    <path clip-path="url(#p56eae4c08d)" d="M 144.612936 169.246875 
L 145.930046 169.246875 
L 145.930046 169.234631 
L 144.612936 169.234631 
z
" style="fill:#1f77b4;opacity:0.8;"/>
   </g>
   <g id="patch_63">
    <path clip-path="url(#p56eae4c08d)" d="M 145.930046 169.246875 
L 147.247156 169.246875 
L 147.247156 169.23708 
L 145.930046 169.23708 
z
" style="fill:#1f77b4;opacity:0.8;"/>
   </g>
   <g id="patch_64">
    <path clip-path="url(#p56eae4c08d)" d="M 147.247156 169.246875 
L 148.564266 169.246875 
L 148.564266 169.246875 
L 147.247156 169.246875 
z
" style="fill:#1f77b4;opacity:0.8;"/>
   </g>
   <g id="patch_65">
    <path clip-path="url(#p56eae4c08d)" d="M 148.564266 169.246875 
L 149.881376 169.246875 
L 149.881376 169.238304 
L 148.564266 169.238304 
z
" style="fill:#1f77b4;opacity:0.8;"/>
   </g>
   <g id="patch_66">
    <path clip-path="url(#p56eae4c08d)" d="M 149.881376 169.246875 
L 151.198486 169.246875 
L 151.198486 169.243202 
L 149.881376 169.243202 
z
" style="fill:#1f77b4;opacity:0.8;"/>
   </g>
   <g id="patch_67">
    <path clip-path="url(#p56eae4c08d)" d="M 151.198486 169.246875 
L 152.515596 169.246875 
L 152.515596 169.241977 
L 151.198486 169.241977 
z
" style="fill:#1f77b4;opacity:0.8;"/>
   </g>
   <g id="patch_68">
    <path clip-path="url(#p56eae4c08d)" d="M 152.515596 169.246875 
L 153.832706 169.246875 
L 153.832706 169.246875 
L 152.515596 169.246875 
z
" style="fill:#1f77b4;opacity:0.8;"/>
   </g>
   <g id="patch_69">
    <path clip-path="url(#p56eae4c08d)" d="M 153.832706 169.246875 
L 155.149817 169.246875 
L 155.149817 169.246875 
L 153.832706 169.246875 
z
" style="fill:#1f77b4;opacity:0.8;"/>
   </g>
   <g id="patch_70">
    <path clip-path="url(#p56eae4c08d)" d="M 155.149817 169.246875 
L 156.466927 169.246875 
L 156.466927 169.246875 
L 155.149817 169.246875 
z
" style="fill:#1f77b4;opacity:0.8;"/>
   </g>
   <g id="patch_71">
    <path clip-path="url(#p56eae4c08d)" d="M 156.466927 169.246875 
L 157.784037 169.246875 
L 157.784037 169.246875 
L 156.466927 169.246875 
z
" style="fill:#1f77b4;opacity:0.8;"/>
   </g>
   <g id="patch_72">
    <path clip-path="url(#p56eae4c08d)" d="M 157.784037 169.246875 
L 159.101147 169.246875 
L 159.101147 169.246875 
L 157.784037 169.246875 
z
" style="fill:#1f77b4;opacity:0.8;"/>
   </g>
   <g id="patch_73">
    <path clip-path="url(#p56eae4c08d)" d="M 159.101147 169.246875 
L 160.418257 169.246875 
L 160.418257 169.244426 
L 159.101147 169.244426 
z
" style="fill:#1f77b4;opacity:0.8;"/>
   </g>
   <g id="patch_74">
    <path clip-path="url(#p56eae4c08d)" d="M 160.418257 169.246875 
L 161.735367 169.246875 
L 161.735367 169.246875 
L 160.418257 169.246875 
z
" style="fill:#1f77b4;opacity:0.8;"/>
   </g>
   <g id="patch_75">
    <path clip-path="url(#p56eae4c08d)" d="M 161.735367 169.246875 
L 163.052477 169.246875 
L 163.052477 169.246875 
L 161.735367 169.246875 
z
" style="fill:#1f77b4;opacity:0.8;"/>
   </g>
   <g id="patch_76">
    <path clip-path="url(#p56eae4c08d)" d="M 163.052477 169.246875 
L 164.369587 169.246875 
L 164.369587 169.246875 
L 163.052477 169.246875 
z
" style="fill:#1f77b4;opacity:0.8;"/>
   </g>
   <g id="patch_77">
    <path clip-path="url(#p56eae4c08d)" d="M 164.369587 169.246875 
L 165.686697 169.246875 
L 165.686697 169.246875 
L 164.369587 169.246875 
z
" style="fill:#1f77b4;opacity:0.8;"/>
   </g>
   <g id="patch_78">
    <path clip-path="url(#p56eae4c08d)" d="M 165.686697 169.246875 
L 167.003807 169.246875 
L 167.003807 169.246875 
L 165.686697 169.246875 
z
" style="fill:#1f77b4;opacity:0.8;"/>
   </g>
   <g id="patch_79">
    <path clip-path="url(#p56eae4c08d)" d="M 167.003807 169.246875 
L 168.320917 169.246875 
L 168.320917 169.246875 
L 167.003807 169.246875 
z
" style="fill:#1f77b4;opacity:0.8;"/>
   </g>
   <g id="patch_80">
    <path clip-path="url(#p56eae4c08d)" d="M 168.320917 169.246875 
L 169.638028 169.246875 
L 169.638028 169.246875 
L 168.320917 169.246875 
z
" style="fill:#1f77b4;opacity:0.8;"/>
   </g>
   <g id="patch_81">
    <path clip-path="url(#p56eae4c08d)" d="M 169.638028 169.246875 
L 170.955138 169.246875 
L 170.955138 169.246875 
L 169.638028 169.246875 
z
" style="fill:#1f77b4;opacity:0.8;"/>
   </g>
   <g id="patch_82">
    <path clip-path="url(#p56eae4c08d)" d="M 170.955138 169.246875 
L 172.272248 169.246875 
L 172.272248 169.246875 
L 170.955138 169.246875 
z
" style="fill:#1f77b4;opacity:0.8;"/>
   </g>
   <g id="patch_83">
    <path clip-path="url(#p56eae4c08d)" d="M 172.272248 169.246875 
L 173.589358 169.246875 
L 173.589358 169.246875 
L 172.272248 169.246875 
z
" style="fill:#1f77b4;opacity:0.8;"/>
   </g>
   <g id="patch_84">
    <path clip-path="url(#p56eae4c08d)" d="M 173.589358 169.246875 
L 174.906468 169.246875 
L 174.906468 169.246875 
L 173.589358 169.246875 
z
" style="fill:#1f77b4;opacity:0.8;"/>
   </g>
   <g id="patch_85">
    <path clip-path="url(#p56eae4c08d)" d="M 174.906468 169.246875 
L 176.223578 169.246875 
L 176.223578 169.246875 
L 174.906468 169.246875 
z
" style="fill:#1f77b4;opacity:0.8;"/>
   </g>
   <g id="patch_86">
    <path clip-path="url(#p56eae4c08d)" d="M 176.223578 169.246875 
L 177.540688 169.246875 
L 177.540688 169.246875 
L 176.223578 169.246875 
z
" style="fill:#1f77b4;opacity:0.8;"/>
   </g>
   <g id="patch_87">
    <path clip-path="url(#p56eae4c08d)" d="M 177.540688 169.246875 
L 178.857798 169.246875 
L 178.857798 169.246875 
L 177.540688 169.246875 
z
" style="fill:#1f77b4;opacity:0.8;"/>
   </g>
   <g id="patch_88">
    <path clip-path="url(#p56eae4c08d)" d="M 178.857798 169.246875 
L 180.174908 169.246875 
L 180.174908 169.246875 
L 178.857798 169.246875 
z
" style="fill:#1f77b4;opacity:0.8;"/>
   </g>
   <g id="patch_89">
    <path clip-path="url(#p56eae4c08d)" d="M 180.174908 169.246875 
L 181.492018 169.246875 
L 181.492018 169.246875 
L 180.174908 169.246875 
z
" style="fill:#1f77b4;opacity:0.8;"/>
   </g>
   <g id="patch_90">
    <path clip-path="url(#p56eae4c08d)" d="M 181.492018 169.246875 
L 182.809128 169.246875 
L 182.809128 169.246875 
L 181.492018 169.246875 
z
" style="fill:#1f77b4;opacity:0.8;"/>
   </g>
   <g id="patch_91">
    <path clip-path="url(#p56eae4c08d)" d="M 182.809128 169.246875 
L 184.126239 169.246875 
L 184.126239 169.246875 
L 182.809128 169.246875 
z
" style="fill:#1f77b4;opacity:0.8;"/>
   </g>
   <g id="patch_92">
    <path clip-path="url(#p56eae4c08d)" d="M 184.126239 169.246875 
L 185.443349 169.246875 
L 185.443349 169.246875 
L 184.126239 169.246875 
z
" style="fill:#1f77b4;opacity:0.8;"/>
   </g>
   <g id="patch_93">
    <path clip-path="url(#p56eae4c08d)" d="M 185.443349 169.246875 
L 186.760459 169.246875 
L 186.760459 169.246875 
L 185.443349 169.246875 
z
" style="fill:#1f77b4;opacity:0.8;"/>
   </g>
   <g id="patch_94">
    <path clip-path="url(#p56eae4c08d)" d="M 186.760459 169.246875 
L 188.077569 169.246875 
L 188.077569 169.246875 
L 186.760459 169.246875 
z
" style="fill:#1f77b4;opacity:0.8;"/>
   </g>
   <g id="patch_95">
    <path clip-path="url(#p56eae4c08d)" d="M 188.077569 169.246875 
L 189.394679 169.246875 
L 189.394679 169.246875 
L 188.077569 169.246875 
z
" style="fill:#1f77b4;opacity:0.8;"/>
   </g>
   <g id="patch_96">
    <path clip-path="url(#p56eae4c08d)" d="M 189.394679 169.246875 
L 190.711789 169.246875 
L 190.711789 169.246875 
L 189.394679 169.246875 
z
" style="fill:#1f77b4;opacity:0.8;"/>
   </g>
   <g id="patch_97">
    <path clip-path="url(#p56eae4c08d)" d="M 190.711789 169.246875 
L 192.028899 169.246875 
L 192.028899 169.246875 
L 190.711789 169.246875 
z
" style="fill:#1f77b4;opacity:0.8;"/>
   </g>
   <g id="patch_98">
    <path clip-path="url(#p56eae4c08d)" d="M 192.028899 169.246875 
L 193.346009 169.246875 
L 193.346009 169.246875 
L 192.028899 169.246875 
z
" style="fill:#1f77b4;opacity:0.8;"/>
   </g>
   <g id="patch_99">
    <path clip-path="url(#p56eae4c08d)" d="M 193.346009 169.246875 
L 194.663119 169.246875 
L 194.663119 169.246875 
L 193.346009 169.246875 
z
" style="fill:#1f77b4;opacity:0.8;"/>
   </g>
   <g id="patch_100">
    <path clip-path="url(#p56eae4c08d)" d="M 194.663119 169.246875 
L 195.980229 169.246875 
L 195.980229 169.246875 
L 194.663119 169.246875 
z
" style="fill:#1f77b4;opacity:0.8;"/>
   </g>
   <g id="patch_101">
    <path clip-path="url(#p56eae4c08d)" d="M 195.980229 169.246875 
L 197.297339 169.246875 
L 197.297339 169.246875 
L 195.980229 169.246875 
z
" style="fill:#1f77b4;opacity:0.8;"/>
   </g>
   <g id="patch_102">
    <path clip-path="url(#p56eae4c08d)" d="M 197.297339 169.246875 
L 198.61445 169.246875 
L 198.61445 169.245651 
L 197.297339 169.245651 
z
" style="fill:#1f77b4;opacity:0.8;"/>
   </g>
   <g id="matplotlib.axis_1">
    <g id="xtick_1">
     <g id="line2d_1">
      <defs>
       <path d="M 0 0 
L 0 -8 
" id="mdc904e62ac" style="stroke:#000000;stroke-width:0.8;"/>
      </defs>
      <g>
       <use style="stroke:#000000;stroke-width:0.8;" x="54.55" xlink:href="#mdc904e62ac" y="169.246875"/>
      </g>
     </g>
     <g id="text_1">
      <!-- 0 -->
      <defs>
       <path d="M 31.78125 66.40625 
Q 24.171875 66.40625 20.328125 58.90625 
Q 16.5 51.421875 16.5 36.375 
Q 16.5 21.390625 20.328125 13.890625 
Q 24.171875 6.390625 31.78125 6.390625 
Q 39.453125 6.390625 43.28125 13.890625 
Q 47.125 21.390625 47.125 36.375 
Q 47.125 51.421875 43.28125 58.90625 
Q 39.453125 66.40625 31.78125 66.40625 
z
M 31.78125 74.21875 
Q 44.046875 74.21875 50.515625 64.515625 
Q 56.984375 54.828125 56.984375 36.375 
Q 56.984375 17.96875 50.515625 8.265625 
Q 44.046875 -1.421875 31.78125 -1.421875 
Q 19.53125 -1.421875 13.0625 8.265625 
Q 6.59375 17.96875 6.59375 36.375 
Q 6.59375 54.828125 13.0625 64.515625 
Q 19.53125 74.21875 31.78125 74.21875 
z
" id="DejaVuSans-48"/>
      </defs>
      <g transform="translate(50.09625 183.384688)scale(0.14 -0.14)">
       <use xlink:href="#DejaVuSans-48"/>
      </g>
     </g>
    </g>
    <g id="xtick_2">
     <g id="line2d_2">
      <g>
       <use style="stroke:#000000;stroke-width:0.8;" x="123.180225" xlink:href="#mdc904e62ac" y="169.246875"/>
      </g>
     </g>
     <g id="text_2">
      <!-- 10 -->
      <defs>
       <path d="M 12.40625 8.296875 
L 28.515625 8.296875 
L 28.515625 63.921875 
L 10.984375 60.40625 
L 10.984375 69.390625 
L 28.421875 72.90625 
L 38.28125 72.90625 
L 38.28125 8.296875 
L 54.390625 8.296875 
L 54.390625 0 
L 12.40625 0 
z
" id="DejaVuSans-49"/>
      </defs>
      <g transform="translate(114.272725 183.384688)scale(0.14 -0.14)">
       <use xlink:href="#DejaVuSans-49"/>
       <use x="63.623047" xlink:href="#DejaVuSans-48"/>
      </g>
     </g>
    </g>
    <g id="xtick_3">
     <g id="line2d_3">
      <g>
       <use style="stroke:#000000;stroke-width:0.8;" x="191.810449" xlink:href="#mdc904e62ac" y="169.246875"/>
      </g>
     </g>
     <g id="text_3">
      <!-- 20 -->
      <defs>
       <path d="M 19.1875 8.296875 
L 53.609375 8.296875 
L 53.609375 0 
L 7.328125 0 
L 7.328125 8.296875 
Q 12.9375 14.109375 22.625 23.890625 
Q 32.328125 33.6875 34.8125 36.53125 
Q 39.546875 41.84375 41.421875 45.53125 
Q 43.3125 49.21875 43.3125 52.78125 
Q 43.3125 58.59375 39.234375 62.25 
Q 35.15625 65.921875 28.609375 65.921875 
Q 23.96875 65.921875 18.8125 64.3125 
Q 13.671875 62.703125 7.8125 59.421875 
L 7.8125 69.390625 
Q 13.765625 71.78125 18.9375 73 
Q 24.125 74.21875 28.421875 74.21875 
Q 39.75 74.21875 46.484375 68.546875 
Q 53.21875 62.890625 53.21875 53.421875 
Q 53.21875 48.921875 51.53125 44.890625 
Q 49.859375 40.875 45.40625 35.40625 
Q 44.1875 33.984375 37.640625 27.21875 
Q 31.109375 20.453125 19.1875 8.296875 
z
" id="DejaVuSans-50"/>
      </defs>
      <g transform="translate(182.902949 183.384688)scale(0.14 -0.14)">
       <use xlink:href="#DejaVuSans-50"/>
       <use x="63.623047" xlink:href="#DejaVuSans-48"/>
      </g>
     </g>
    </g>
    <g id="xtick_4">
     <g id="line2d_4">
      <defs>
       <path d="M 0 0 
L 0 -5 
" id="m9e949caaa3" style="stroke:#000000;stroke-width:0.6;"/>
      </defs>
      <g>
       <use style="stroke:#000000;stroke-width:0.6;" x="68.276045" xlink:href="#m9e949caaa3" y="169.246875"/>
      </g>
     </g>
    </g>
    <g id="xtick_5">
     <g id="line2d_5">
      <g>
       <use style="stroke:#000000;stroke-width:0.6;" x="82.00209" xlink:href="#m9e949caaa3" y="169.246875"/>
      </g>
     </g>
    </g>
    <g id="xtick_6">
     <g id="line2d_6">
      <g>
       <use style="stroke:#000000;stroke-width:0.6;" x="95.728135" xlink:href="#m9e949caaa3" y="169.246875"/>
      </g>
     </g>
    </g>
    <g id="xtick_7">
     <g id="line2d_7">
      <g>
       <use style="stroke:#000000;stroke-width:0.6;" x="109.45418" xlink:href="#m9e949caaa3" y="169.246875"/>
      </g>
     </g>
    </g>
    <g id="xtick_8">
     <g id="line2d_8">
      <g>
       <use style="stroke:#000000;stroke-width:0.6;" x="136.906269" xlink:href="#m9e949caaa3" y="169.246875"/>
      </g>
     </g>
    </g>
    <g id="xtick_9">
     <g id="line2d_9">
      <g>
       <use style="stroke:#000000;stroke-width:0.6;" x="150.632314" xlink:href="#m9e949caaa3" y="169.246875"/>
      </g>
     </g>
    </g>
    <g id="xtick_10">
     <g id="line2d_10">
      <g>
       <use style="stroke:#000000;stroke-width:0.6;" x="164.358359" xlink:href="#m9e949caaa3" y="169.246875"/>
      </g>
     </g>
    </g>
    <g id="xtick_11">
     <g id="line2d_11">
      <g>
       <use style="stroke:#000000;stroke-width:0.6;" x="178.084404" xlink:href="#m9e949caaa3" y="169.246875"/>
      </g>
     </g>
    </g>
    <g id="text_4">
     <!-- d (Å) -->
     <defs>
      <path d="M 45.40625 46.390625 
L 45.40625 75.984375 
L 54.390625 75.984375 
L 54.390625 0 
L 45.40625 0 
L 45.40625 8.203125 
Q 42.578125 3.328125 38.25 0.953125 
Q 33.9375 -1.421875 27.875 -1.421875 
Q 17.96875 -1.421875 11.734375 6.484375 
Q 5.515625 14.40625 5.515625 27.296875 
Q 5.515625 40.1875 11.734375 48.09375 
Q 17.96875 56 27.875 56 
Q 33.9375 56 38.25 53.625 
Q 42.578125 51.265625 45.40625 46.390625 
z
M 14.796875 27.296875 
Q 14.796875 17.390625 18.875 11.75 
Q 22.953125 6.109375 30.078125 6.109375 
Q 37.203125 6.109375 41.296875 11.75 
Q 45.40625 17.390625 45.40625 27.296875 
Q 45.40625 37.203125 41.296875 42.84375 
Q 37.203125 48.484375 30.078125 48.484375 
Q 22.953125 48.484375 18.875 42.84375 
Q 14.796875 37.203125 14.796875 27.296875 
z
" id="DejaVuSans-100"/>
      <path id="DejaVuSans-32"/>
      <path d="M 31 75.875 
Q 24.46875 64.65625 21.28125 53.65625 
Q 18.109375 42.671875 18.109375 31.390625 
Q 18.109375 20.125 21.3125 9.0625 
Q 24.515625 -2 31 -13.1875 
L 23.1875 -13.1875 
Q 15.875 -1.703125 12.234375 9.375 
Q 8.59375 20.453125 8.59375 31.390625 
Q 8.59375 42.28125 12.203125 53.3125 
Q 15.828125 64.359375 23.1875 75.875 
z
" id="DejaVuSans-40"/>
      <path d="M 41.609375 79.390625 
Q 41.609375 82.46875 39.421875 84.640625 
Q 37.25 86.8125 34.1875 86.8125 
Q 31.0625 86.8125 28.9375 84.6875 
Q 26.8125 82.5625 26.8125 79.390625 
Q 26.8125 76.3125 28.953125 74.15625 
Q 31.109375 72.015625 34.1875 72.015625 
Q 37.25 72.015625 39.421875 74.15625 
Q 41.609375 76.3125 41.609375 79.390625 
z
M 34.1875 63.1875 
L 20.90625 26.90625 
L 47.515625 26.90625 
z
M 26.8125 68.21875 
Q 23.828125 70.21875 22.3125 73.015625 
Q 20.796875 75.828125 20.796875 79.390625 
Q 20.796875 85.015625 24.671875 88.921875 
Q 28.5625 92.828125 34.1875 92.828125 
Q 39.75 92.828125 43.671875 88.890625 
Q 47.609375 84.96875 47.609375 79.390625 
Q 47.609375 75.984375 46.0625 73.09375 
Q 44.53125 70.21875 41.609375 68.21875 
L 67.578125 0 
L 57.328125 0 
L 50.6875 18.703125 
L 17.828125 18.703125 
L 11.1875 0 
L 0.78125 0 
z
" id="DejaVuSans-197"/>
      <path d="M 8.015625 75.875 
L 15.828125 75.875 
Q 23.140625 64.359375 26.78125 53.3125 
Q 30.421875 42.28125 30.421875 31.390625 
Q 30.421875 20.453125 26.78125 9.375 
Q 23.140625 -1.703125 15.828125 -13.1875 
L 8.015625 -13.1875 
Q 14.5 -2 17.703125 9.0625 
Q 20.90625 20.125 20.90625 31.390625 
Q 20.90625 42.671875 17.703125 53.65625 
Q 14.5 64.65625 8.015625 75.875 
z
" id="DejaVuSans-41"/>
     </defs>
     <g transform="translate(112.955781 202.226875)scale(0.14 -0.14)">
      <use xlink:href="#DejaVuSans-100"/>
      <use x="63.476562" xlink:href="#DejaVuSans-32"/>
      <use x="95.263672" xlink:href="#DejaVuSans-40"/>
      <use x="134.277344" xlink:href="#DejaVuSans-197"/>
      <use x="202.685547" xlink:href="#DejaVuSans-41"/>
     </g>
    </g>
   </g>
   <g id="matplotlib.axis_2">
    <g id="ytick_1">
     <g id="line2d_12">
      <defs>
       <path d="M 0 0 
L 8 0 
" id="m265edb5c8e" style="stroke:#000000;stroke-width:0.8;"/>
      </defs>
      <g>
       <use style="stroke:#000000;stroke-width:0.8;" x="54.55" xlink:href="#m265edb5c8e" y="169.246875"/>
      </g>
     </g>
     <g id="text_5">
      <!-- 0.0 -->
      <defs>
       <path d="M 10.6875 12.40625 
L 21 12.40625 
L 21 0 
L 10.6875 0 
z
" id="DejaVuSans-46"/>
      </defs>
      <g transform="translate(28.785625 174.565781)scale(0.14 -0.14)">
       <use xlink:href="#DejaVuSans-48"/>
       <use x="63.623047" xlink:href="#DejaVuSans-46"/>
       <use x="95.410156" xlink:href="#DejaVuSans-48"/>
      </g>
     </g>
    </g>
    <g id="ytick_2">
     <g id="line2d_13">
      <g>
       <use style="stroke:#000000;stroke-width:0.8;" x="54.55" xlink:href="#m265edb5c8e" y="118.230231"/>
      </g>
     </g>
     <g id="text_6">
      <!-- 0.1 -->
      <g transform="translate(28.785625 123.549137)scale(0.14 -0.14)">
       <use xlink:href="#DejaVuSans-48"/>
       <use x="63.623047" xlink:href="#DejaVuSans-46"/>
       <use x="95.410156" xlink:href="#DejaVuSans-49"/>
      </g>
     </g>
    </g>
    <g id="ytick_3">
     <g id="line2d_14">
      <g>
       <use style="stroke:#000000;stroke-width:0.8;" x="54.55" xlink:href="#m265edb5c8e" y="67.213587"/>
      </g>
     </g>
     <g id="text_7">
      <!-- 0.2 -->
      <g transform="translate(28.785625 72.532493)scale(0.14 -0.14)">
       <use xlink:href="#DejaVuSans-48"/>
       <use x="63.623047" xlink:href="#DejaVuSans-46"/>
       <use x="95.410156" xlink:href="#DejaVuSans-50"/>
      </g>
     </g>
    </g>
    <g id="ytick_4">
     <g id="line2d_15">
      <g>
       <use style="stroke:#000000;stroke-width:0.8;" x="54.55" xlink:href="#m265edb5c8e" y="16.196943"/>
      </g>
     </g>
     <g id="text_8">
      <!-- 0.3 -->
      <defs>
       <path d="M 40.578125 39.3125 
Q 47.65625 37.796875 51.625 33 
Q 55.609375 28.21875 55.609375 21.1875 
Q 55.609375 10.40625 48.1875 4.484375 
Q 40.765625 -1.421875 27.09375 -1.421875 
Q 22.515625 -1.421875 17.65625 -0.515625 
Q 12.796875 0.390625 7.625 2.203125 
L 7.625 11.71875 
Q 11.71875 9.328125 16.59375 8.109375 
Q 21.484375 6.890625 26.8125 6.890625 
Q 36.078125 6.890625 40.9375 10.546875 
Q 45.796875 14.203125 45.796875 21.1875 
Q 45.796875 27.640625 41.28125 31.265625 
Q 36.765625 34.90625 28.71875 34.90625 
L 20.21875 34.90625 
L 20.21875 43.015625 
L 29.109375 43.015625 
Q 36.375 43.015625 40.234375 45.921875 
Q 44.09375 48.828125 44.09375 54.296875 
Q 44.09375 59.90625 40.109375 62.90625 
Q 36.140625 65.921875 28.71875 65.921875 
Q 24.65625 65.921875 20.015625 65.03125 
Q 15.375 64.15625 9.8125 62.3125 
L 9.8125 71.09375 
Q 15.4375 72.65625 20.34375 73.4375 
Q 25.25 74.21875 29.59375 74.21875 
Q 40.828125 74.21875 47.359375 69.109375 
Q 53.90625 64.015625 53.90625 55.328125 
Q 53.90625 49.265625 50.4375 45.09375 
Q 46.96875 40.921875 40.578125 39.3125 
z
" id="DejaVuSans-51"/>
      </defs>
      <g transform="translate(28.785625 21.515849)scale(0.14 -0.14)">
       <use xlink:href="#DejaVuSans-48"/>
       <use x="63.623047" xlink:href="#DejaVuSans-46"/>
       <use x="95.410156" xlink:href="#DejaVuSans-51"/>
      </g>
     </g>
    </g>
    <g id="ytick_5">
     <g id="line2d_16">
      <defs>
       <path d="M 0 0 
L 5 0 
" id="md58b28699d" style="stroke:#000000;stroke-width:0.6;"/>
      </defs>
      <g>
       <use style="stroke:#000000;stroke-width:0.6;" x="54.55" xlink:href="#md58b28699d" y="159.043546"/>
      </g>
     </g>
    </g>
    <g id="ytick_6">
     <g id="line2d_17">
      <g>
       <use style="stroke:#000000;stroke-width:0.6;" x="54.55" xlink:href="#md58b28699d" y="148.840217"/>
      </g>
     </g>
    </g>
    <g id="ytick_7">
     <g id="line2d_18">
      <g>
       <use style="stroke:#000000;stroke-width:0.6;" x="54.55" xlink:href="#md58b28699d" y="138.636889"/>
      </g>
     </g>
    </g>
    <g id="ytick_8">
     <g id="line2d_19">
      <g>
       <use style="stroke:#000000;stroke-width:0.6;" x="54.55" xlink:href="#md58b28699d" y="128.43356"/>
      </g>
     </g>
    </g>
    <g id="ytick_9">
     <g id="line2d_20">
      <g>
       <use style="stroke:#000000;stroke-width:0.6;" x="54.55" xlink:href="#md58b28699d" y="108.026902"/>
      </g>
     </g>
    </g>
    <g id="ytick_10">
     <g id="line2d_21">
      <g>
       <use style="stroke:#000000;stroke-width:0.6;" x="54.55" xlink:href="#md58b28699d" y="97.823573"/>
      </g>
     </g>
    </g>
    <g id="ytick_11">
     <g id="line2d_22">
      <g>
       <use style="stroke:#000000;stroke-width:0.6;" x="54.55" xlink:href="#md58b28699d" y="87.620245"/>
      </g>
     </g>
    </g>
    <g id="ytick_12">
     <g id="line2d_23">
      <g>
       <use style="stroke:#000000;stroke-width:0.6;" x="54.55" xlink:href="#md58b28699d" y="77.416916"/>
      </g>
     </g>
    </g>
    <g id="ytick_13">
     <g id="line2d_24">
      <g>
       <use style="stroke:#000000;stroke-width:0.6;" x="54.55" xlink:href="#md58b28699d" y="57.010258"/>
      </g>
     </g>
    </g>
    <g id="ytick_14">
     <g id="line2d_25">
      <g>
       <use style="stroke:#000000;stroke-width:0.6;" x="54.55" xlink:href="#md58b28699d" y="46.80693"/>
      </g>
     </g>
    </g>
    <g id="ytick_15">
     <g id="line2d_26">
      <g>
       <use style="stroke:#000000;stroke-width:0.6;" x="54.55" xlink:href="#md58b28699d" y="36.603601"/>
      </g>
     </g>
    </g>
    <g id="ytick_16">
     <g id="line2d_27">
      <g>
       <use style="stroke:#000000;stroke-width:0.6;" x="54.55" xlink:href="#md58b28699d" y="26.400272"/>
      </g>
     </g>
    </g>
    <g id="text_9">
     <!-- Histogram displacement -->
     <defs>
      <path d="M 9.8125 72.90625 
L 19.671875 72.90625 
L 19.671875 43.015625 
L 55.515625 43.015625 
L 55.515625 72.90625 
L 65.375 72.90625 
L 65.375 0 
L 55.515625 0 
L 55.515625 34.71875 
L 19.671875 34.71875 
L 19.671875 0 
L 9.8125 0 
z
" id="DejaVuSans-72"/>
      <path d="M 9.421875 54.6875 
L 18.40625 54.6875 
L 18.40625 0 
L 9.421875 0 
z
M 9.421875 75.984375 
L 18.40625 75.984375 
L 18.40625 64.59375 
L 9.421875 64.59375 
z
" id="DejaVuSans-105"/>
      <path d="M 44.28125 53.078125 
L 44.28125 44.578125 
Q 40.484375 46.53125 36.375 47.5 
Q 32.28125 48.484375 27.875 48.484375 
Q 21.1875 48.484375 17.84375 46.4375 
Q 14.5 44.390625 14.5 40.28125 
Q 14.5 37.15625 16.890625 35.375 
Q 19.28125 33.59375 26.515625 31.984375 
L 29.59375 31.296875 
Q 39.15625 29.25 43.1875 25.515625 
Q 47.21875 21.78125 47.21875 15.09375 
Q 47.21875 7.46875 41.1875 3.015625 
Q 35.15625 -1.421875 24.609375 -1.421875 
Q 20.21875 -1.421875 15.453125 -0.5625 
Q 10.6875 0.296875 5.421875 2 
L 5.421875 11.28125 
Q 10.40625 8.6875 15.234375 7.390625 
Q 20.0625 6.109375 24.8125 6.109375 
Q 31.15625 6.109375 34.5625 8.28125 
Q 37.984375 10.453125 37.984375 14.40625 
Q 37.984375 18.0625 35.515625 20.015625 
Q 33.0625 21.96875 24.703125 23.78125 
L 21.578125 24.515625 
Q 13.234375 26.265625 9.515625 29.90625 
Q 5.8125 33.546875 5.8125 39.890625 
Q 5.8125 47.609375 11.28125 51.796875 
Q 16.75 56 26.8125 56 
Q 31.78125 56 36.171875 55.265625 
Q 40.578125 54.546875 44.28125 53.078125 
z
" id="DejaVuSans-115"/>
      <path d="M 18.3125 70.21875 
L 18.3125 54.6875 
L 36.8125 54.6875 
L 36.8125 47.703125 
L 18.3125 47.703125 
L 18.3125 18.015625 
Q 18.3125 11.328125 20.140625 9.421875 
Q 21.96875 7.515625 27.59375 7.515625 
L 36.8125 7.515625 
L 36.8125 0 
L 27.59375 0 
Q 17.1875 0 13.234375 3.875 
Q 9.28125 7.765625 9.28125 18.015625 
L 9.28125 47.703125 
L 2.6875 47.703125 
L 2.6875 54.6875 
L 9.28125 54.6875 
L 9.28125 70.21875 
z
" id="DejaVuSans-116"/>
      <path d="M 30.609375 48.390625 
Q 23.390625 48.390625 19.1875 42.75 
Q 14.984375 37.109375 14.984375 27.296875 
Q 14.984375 17.484375 19.15625 11.84375 
Q 23.34375 6.203125 30.609375 6.203125 
Q 37.796875 6.203125 41.984375 11.859375 
Q 46.1875 17.53125 46.1875 27.296875 
Q 46.1875 37.015625 41.984375 42.703125 
Q 37.796875 48.390625 30.609375 48.390625 
z
M 30.609375 56 
Q 42.328125 56 49.015625 48.375 
Q 55.71875 40.765625 55.71875 27.296875 
Q 55.71875 13.875 49.015625 6.21875 
Q 42.328125 -1.421875 30.609375 -1.421875 
Q 18.84375 -1.421875 12.171875 6.21875 
Q 5.515625 13.875 5.515625 27.296875 
Q 5.515625 40.765625 12.171875 48.375 
Q 18.84375 56 30.609375 56 
z
" id="DejaVuSans-111"/>
      <path d="M 45.40625 27.984375 
Q 45.40625 37.75 41.375 43.109375 
Q 37.359375 48.484375 30.078125 48.484375 
Q 22.859375 48.484375 18.828125 43.109375 
Q 14.796875 37.75 14.796875 27.984375 
Q 14.796875 18.265625 18.828125 12.890625 
Q 22.859375 7.515625 30.078125 7.515625 
Q 37.359375 7.515625 41.375 12.890625 
Q 45.40625 18.265625 45.40625 27.984375 
z
M 54.390625 6.78125 
Q 54.390625 -7.171875 48.1875 -13.984375 
Q 42 -20.796875 29.203125 -20.796875 
Q 24.46875 -20.796875 20.265625 -20.09375 
Q 16.0625 -19.390625 12.109375 -17.921875 
L 12.109375 -9.1875 
Q 16.0625 -11.328125 19.921875 -12.34375 
Q 23.78125 -13.375 27.78125 -13.375 
Q 36.625 -13.375 41.015625 -8.765625 
Q 45.40625 -4.15625 45.40625 5.171875 
L 45.40625 9.625 
Q 42.625 4.78125 38.28125 2.390625 
Q 33.9375 0 27.875 0 
Q 17.828125 0 11.671875 7.65625 
Q 5.515625 15.328125 5.515625 27.984375 
Q 5.515625 40.671875 11.671875 48.328125 
Q 17.828125 56 27.875 56 
Q 33.9375 56 38.28125 53.609375 
Q 42.625 51.21875 45.40625 46.390625 
L 45.40625 54.6875 
L 54.390625 54.6875 
z
" id="DejaVuSans-103"/>
      <path d="M 41.109375 46.296875 
Q 39.59375 47.171875 37.8125 47.578125 
Q 36.03125 48 33.890625 48 
Q 26.265625 48 22.1875 43.046875 
Q 18.109375 38.09375 18.109375 28.8125 
L 18.109375 0 
L 9.078125 0 
L 9.078125 54.6875 
L 18.109375 54.6875 
L 18.109375 46.1875 
Q 20.953125 51.171875 25.484375 53.578125 
Q 30.03125 56 36.53125 56 
Q 37.453125 56 38.578125 55.875 
Q 39.703125 55.765625 41.0625 55.515625 
z
" id="DejaVuSans-114"/>
      <path d="M 34.28125 27.484375 
Q 23.390625 27.484375 19.1875 25 
Q 14.984375 22.515625 14.984375 16.5 
Q 14.984375 11.71875 18.140625 8.90625 
Q 21.296875 6.109375 26.703125 6.109375 
Q 34.1875 6.109375 38.703125 11.40625 
Q 43.21875 16.703125 43.21875 25.484375 
L 43.21875 27.484375 
z
M 52.203125 31.203125 
L 52.203125 0 
L 43.21875 0 
L 43.21875 8.296875 
Q 40.140625 3.328125 35.546875 0.953125 
Q 30.953125 -1.421875 24.3125 -1.421875 
Q 15.921875 -1.421875 10.953125 3.296875 
Q 6 8.015625 6 15.921875 
Q 6 25.140625 12.171875 29.828125 
Q 18.359375 34.515625 30.609375 34.515625 
L 43.21875 34.515625 
L 43.21875 35.40625 
Q 43.21875 41.609375 39.140625 45 
Q 35.0625 48.390625 27.6875 48.390625 
Q 23 48.390625 18.546875 47.265625 
Q 14.109375 46.140625 10.015625 43.890625 
L 10.015625 52.203125 
Q 14.9375 54.109375 19.578125 55.046875 
Q 24.21875 56 28.609375 56 
Q 40.484375 56 46.34375 49.84375 
Q 52.203125 43.703125 52.203125 31.203125 
z
" id="DejaVuSans-97"/>
      <path d="M 52 44.1875 
Q 55.375 50.25 60.0625 53.125 
Q 64.75 56 71.09375 56 
Q 79.640625 56 84.28125 50.015625 
Q 88.921875 44.046875 88.921875 33.015625 
L 88.921875 0 
L 79.890625 0 
L 79.890625 32.71875 
Q 79.890625 40.578125 77.09375 44.375 
Q 74.3125 48.1875 68.609375 48.1875 
Q 61.625 48.1875 57.5625 43.546875 
Q 53.515625 38.921875 53.515625 30.90625 
L 53.515625 0 
L 44.484375 0 
L 44.484375 32.71875 
Q 44.484375 40.625 41.703125 44.40625 
Q 38.921875 48.1875 33.109375 48.1875 
Q 26.21875 48.1875 22.15625 43.53125 
Q 18.109375 38.875 18.109375 30.90625 
L 18.109375 0 
L 9.078125 0 
L 9.078125 54.6875 
L 18.109375 54.6875 
L 18.109375 46.1875 
Q 21.1875 51.21875 25.484375 53.609375 
Q 29.78125 56 35.6875 56 
Q 41.65625 56 45.828125 52.96875 
Q 50 49.953125 52 44.1875 
z
" id="DejaVuSans-109"/>
      <path d="M 18.109375 8.203125 
L 18.109375 -20.796875 
L 9.078125 -20.796875 
L 9.078125 54.6875 
L 18.109375 54.6875 
L 18.109375 46.390625 
Q 20.953125 51.265625 25.265625 53.625 
Q 29.59375 56 35.59375 56 
Q 45.5625 56 51.78125 48.09375 
Q 58.015625 40.1875 58.015625 27.296875 
Q 58.015625 14.40625 51.78125 6.484375 
Q 45.5625 -1.421875 35.59375 -1.421875 
Q 29.59375 -1.421875 25.265625 0.953125 
Q 20.953125 3.328125 18.109375 8.203125 
z
M 48.6875 27.296875 
Q 48.6875 37.203125 44.609375 42.84375 
Q 40.53125 48.484375 33.40625 48.484375 
Q 26.265625 48.484375 22.1875 42.84375 
Q 18.109375 37.203125 18.109375 27.296875 
Q 18.109375 17.390625 22.1875 11.75 
Q 26.265625 6.109375 33.40625 6.109375 
Q 40.53125 6.109375 44.609375 11.75 
Q 48.6875 17.390625 48.6875 27.296875 
z
" id="DejaVuSans-112"/>
      <path d="M 9.421875 75.984375 
L 18.40625 75.984375 
L 18.40625 0 
L 9.421875 0 
z
" id="DejaVuSans-108"/>
      <path d="M 48.78125 52.59375 
L 48.78125 44.1875 
Q 44.96875 46.296875 41.140625 47.34375 
Q 37.3125 48.390625 33.40625 48.390625 
Q 24.65625 48.390625 19.8125 42.84375 
Q 14.984375 37.3125 14.984375 27.296875 
Q 14.984375 17.28125 19.8125 11.734375 
Q 24.65625 6.203125 33.40625 6.203125 
Q 37.3125 6.203125 41.140625 7.25 
Q 44.96875 8.296875 48.78125 10.40625 
L 48.78125 2.09375 
Q 45.015625 0.34375 40.984375 -0.53125 
Q 36.96875 -1.421875 32.421875 -1.421875 
Q 20.0625 -1.421875 12.78125 6.34375 
Q 5.515625 14.109375 5.515625 27.296875 
Q 5.515625 40.671875 12.859375 48.328125 
Q 20.21875 56 33.015625 56 
Q 37.15625 56 41.109375 55.140625 
Q 45.0625 54.296875 48.78125 52.59375 
z
" id="DejaVuSans-99"/>
      <path d="M 56.203125 29.59375 
L 56.203125 25.203125 
L 14.890625 25.203125 
Q 15.484375 15.921875 20.484375 11.0625 
Q 25.484375 6.203125 34.421875 6.203125 
Q 39.59375 6.203125 44.453125 7.46875 
Q 49.3125 8.734375 54.109375 11.28125 
L 54.109375 2.78125 
Q 49.265625 0.734375 44.1875 -0.34375 
Q 39.109375 -1.421875 33.890625 -1.421875 
Q 20.796875 -1.421875 13.15625 6.1875 
Q 5.515625 13.8125 5.515625 26.8125 
Q 5.515625 40.234375 12.765625 48.109375 
Q 20.015625 56 32.328125 56 
Q 43.359375 56 49.78125 48.890625 
Q 56.203125 41.796875 56.203125 29.59375 
z
M 47.21875 32.234375 
Q 47.125 39.59375 43.09375 43.984375 
Q 39.0625 48.390625 32.421875 48.390625 
Q 24.90625 48.390625 20.390625 44.140625 
Q 15.875 39.890625 15.1875 32.171875 
z
" id="DejaVuSans-101"/>
      <path d="M 54.890625 33.015625 
L 54.890625 0 
L 45.90625 0 
L 45.90625 32.71875 
Q 45.90625 40.484375 42.875 44.328125 
Q 39.84375 48.1875 33.796875 48.1875 
Q 26.515625 48.1875 22.3125 43.546875 
Q 18.109375 38.921875 18.109375 30.90625 
L 18.109375 0 
L 9.078125 0 
L 9.078125 54.6875 
L 18.109375 54.6875 
L 18.109375 46.1875 
Q 21.34375 51.125 25.703125 53.5625 
Q 30.078125 56 35.796875 56 
Q 45.21875 56 50.046875 50.171875 
Q 54.890625 44.34375 54.890625 33.015625 
z
" id="DejaVuSans-110"/>
     </defs>
     <g transform="translate(21.874062 177.768312)rotate(-90)scale(0.14 -0.14)">
      <use xlink:href="#DejaVuSans-72"/>
      <use x="75.195312" xlink:href="#DejaVuSans-105"/>
      <use x="102.978516" xlink:href="#DejaVuSans-115"/>
      <use x="155.078125" xlink:href="#DejaVuSans-116"/>
      <use x="194.287109" xlink:href="#DejaVuSans-111"/>
      <use x="255.46875" xlink:href="#DejaVuSans-103"/>
      <use x="318.945312" xlink:href="#DejaVuSans-114"/>
      <use x="360.058594" xlink:href="#DejaVuSans-97"/>
      <use x="421.337891" xlink:href="#DejaVuSans-109"/>
      <use x="518.75" xlink:href="#DejaVuSans-32"/>
      <use x="550.537109" xlink:href="#DejaVuSans-100"/>
      <use x="614.013672" xlink:href="#DejaVuSans-105"/>
      <use x="641.796875" xlink:href="#DejaVuSans-115"/>
      <use x="693.896484" xlink:href="#DejaVuSans-112"/>
      <use x="757.373047" xlink:href="#DejaVuSans-108"/>
      <use x="785.15625" xlink:href="#DejaVuSans-97"/>
      <use x="846.435547" xlink:href="#DejaVuSans-99"/>
      <use x="901.416016" xlink:href="#DejaVuSans-101"/>
      <use x="962.939453" xlink:href="#DejaVuSans-109"/>
      <use x="1060.351562" xlink:href="#DejaVuSans-101"/>
      <use x="1121.875" xlink:href="#DejaVuSans-110"/>
      <use x="1185.253906" xlink:href="#DejaVuSans-116"/>
     </g>
    </g>
   </g>
   <g id="patch_103">
    <path d="M 54.55 169.246875 
L 54.55 14.864123 
" style="fill:none;stroke:#000000;stroke-linecap:square;stroke-linejoin:miter;stroke-width:0.8;"/>
   </g>
   <g id="patch_104">
    <path d="M 205.2 169.246875 
L 205.2 14.864123 
" style="fill:none;stroke:#000000;stroke-linecap:square;stroke-linejoin:miter;stroke-width:0.8;"/>
   </g>
   <g id="patch_105">
    <path d="M 54.55 169.246875 
L 205.2 169.246875 
" style="fill:none;stroke:#000000;stroke-linecap:square;stroke-linejoin:miter;stroke-width:0.8;"/>
   </g>
   <g id="patch_106">
    <path d="M 54.55 14.864123 
L 205.2 14.864123 
" style="fill:none;stroke:#000000;stroke-linecap:square;stroke-linejoin:miter;stroke-width:0.8;"/>
   </g>
  </g>
 </g>
 <defs>
  <clipPath id="p56eae4c08d">
   <rect height="154.382752" width="150.65" x="54.55" y="14.864123"/>
  </clipPath>
 </defs>
</svg>
